<svg width="162" height="162" viewBox="0 0 162 162" fill="none" xmlns="http://www.w3.org/2000/svg">
<path d="M42 42H162V162H42V42Z" fill="#3B3030"/>
<path d="M126 24C126 37.2548 115.255 48 102 48C88.7452 48 78 37.2548 78 24C78 10.7452 88.7452 0 102 0C115.255 0 126 10.7452 126 24Z" fill="#3B3030"/>
<path d="M48.2227 102C48.2227 115.255 37.4775 126 24.2227 126C10.9678 126 0.222656 115.255 0.222656 102C0.222656 88.7452 10.9678 78 24.2227 78C37.4775 78 48.2227 88.7452 48.2227 102Z" fill="#3B3030"/>
</svg>
