<svg width="241" height="240" viewBox="0 0 241 240" fill="none" xmlns="http://www.w3.org/2000/svg">
<rect x="120.5" y="120.5" width="119" height="119" fill="#3B3030" stroke="#3B3030"/>
<path fill-rule="evenodd" clip-rule="evenodd" d="M120.223 0H0.222656V120H120.223V75.8749C115.825 80.8575 109.391 84 102.223 84C88.9678 84 78.2227 73.2548 78.2227 60C78.2227 46.7452 88.9678 36 102.223 36C109.391 36 115.825 39.1425 120.223 44.1251V0Z" fill="#795757"/>
<circle cx="180" cy="102" r="24.5" fill="#3B3030" stroke="#3B3030"/>
<circle cx="60.2227" cy="102" r="24.5" fill="#664343" stroke="#664343"/>
<mask id="path-5-inside-1_70_854" fill="white">
<path fill-rule="evenodd" clip-rule="evenodd" d="M120.223 120H0.222656V240H120.223V195.875C115.825 200.857 109.391 204 102.223 204C88.9678 204 78.2227 193.255 78.2227 180C78.2227 166.745 88.9678 156 102.223 156C109.391 156 115.825 159.143 120.223 164.125V120Z"/>
</mask>
<path fill-rule="evenodd" clip-rule="evenodd" d="M120.223 120H0.222656V240H120.223V195.875C115.825 200.857 109.391 204 102.223 204C88.9678 204 78.2227 193.255 78.2227 180C78.2227 166.745 88.9678 156 102.223 156C109.391 156 115.825 159.143 120.223 164.125V120Z" fill="#664343"/>
<path d="M0.222656 120V119H-0.777344V120H0.222656ZM120.223 120H121.223V119H120.223V120ZM0.222656 240H-0.777344V241H0.222656V240ZM120.223 240V241H121.223V240H120.223ZM120.223 195.875H121.223V193.231L119.473 195.213L120.223 195.875ZM120.223 164.125L119.473 164.787L121.223 166.769V164.125H120.223ZM0.222656 121H120.223V119H0.222656V121ZM1.22266 240V120H-0.777344V240H1.22266ZM120.223 239H0.222656V241H120.223V239ZM119.223 195.875V240H121.223V195.875H119.223ZM119.473 195.213C115.257 199.99 109.092 203 102.223 203V205C109.69 205 116.393 201.725 120.972 196.537L119.473 195.213ZM102.223 203C89.5201 203 79.2227 192.703 79.2227 180H77.2227C77.2227 193.807 88.4155 205 102.223 205V203ZM79.2227 180C79.2227 167.297 89.5201 157 102.223 157V155C88.4155 155 77.2227 166.193 77.2227 180H79.2227ZM102.223 157C109.092 157 115.257 160.01 119.473 164.787L120.972 163.463C116.393 158.275 109.69 155 102.223 155V157ZM119.223 120V164.125H121.223V120H119.223Z" fill="#664343" mask="url(#path-5-inside-1_70_854)"/>
<circle cx="102.223" cy="180" r="24.5" fill="#3B3030" stroke="#3B3030"/>
</svg>
