<svg xmlns="http://www.w3.org/2000/svg" viewBox="0 0 1833.5 1830"><defs><style>.cls-1{fill:#fff;}</style></defs><g id="Illustration"><g id="Automation_testing" data-name="Automation testing"><path class="cls-1" d="M708.44,833.59l.39,19,20.39,4.16a78.67,78.67,0,0,0,3.67,12.74l-15,14.38,9.87,16.28,19.73-6.58a79.75,79.75,0,0,0,9.57,9.17l-5.78,20L768,931.9l13.78-15.53a80,80,0,0,0,12.89,3.14l5,20.17,19-.38,4.16-20.36a80.11,80.11,0,0,0,12.75-3.67l14.41,15,16.29-9.85-6.59-19.72a79.61,79.61,0,0,0,9.17-9.55l20,5.77,9.18-16.66-15.55-13.77a77.75,77.75,0,0,0,3.14-12.87l20.2-5-.4-19-20.38-4.16a78.58,78.58,0,0,0-3.68-12.73l15-14.39L886.51,782l-19.73,6.58a80.54,80.54,0,0,0-9.57-9.17l5.77-20-16.69-9.18-13.77,15.54a79.27,79.27,0,0,0-12.89-3.15l-5-20.17-19,.39-4.16,20.36a77.79,77.79,0,0,0-12.75,3.67l-14.41-15L748,761.8l6.59,19.72a78.81,78.81,0,0,0-9.17,9.55l-20-5.77L716.22,802l15.56,13.76a78.9,78.9,0,0,0-3.15,12.88Zm97.69-41.46a49,49,0,1,1-48,50A49,49,0,0,1,806.13,792.13Z" transform="translate(-333.25 -335)"/><path d="M799.67,941.89a2.22,2.22,0,0,1-2.15-1.67l-4.64-18.77a79.85,79.85,0,0,1-10.41-2.54l-12.81,14.46a2.23,2.23,0,0,1-2.72.47l-16.69-9.18a2.22,2.22,0,0,1-1.06-2.55l5.37-18.57a81.62,81.62,0,0,1-7.71-7.4l-18.37,6.13a2.21,2.21,0,0,1-2.58-.95L716,885a2.23,2.23,0,0,1,.36-2.74l13.93-13.38a81.05,81.05,0,0,1-3-10.28l-19-3.86a2.23,2.23,0,0,1-1.77-2.12l-.39-19a2.2,2.2,0,0,1,1.68-2.19l18.78-4.64a82.48,82.48,0,0,1,2.54-10.39l-14.47-12.8a2.21,2.21,0,0,1-.47-2.72l9.18-16.67a2.21,2.21,0,0,1,2.55-1.05l18.6,5.37a80.43,80.43,0,0,1,7.4-7.71l-6.14-18.34a2.22,2.22,0,0,1,1-2.59l16.29-9.84a2.2,2.2,0,0,1,2.73.35l13.41,13.92a80.7,80.7,0,0,1,10.29-3l3.86-18.94a2.21,2.21,0,0,1,2.12-1.76l19-.39a2.16,2.16,0,0,1,2.19,1.68l4.65,18.76a83.21,83.21,0,0,1,10.41,2.54l12.81-14.45a2.21,2.21,0,0,1,2.72-.47l16.69,9.17a2.21,2.21,0,0,1,1.05,2.55l-5.36,18.57a84.22,84.22,0,0,1,7.71,7.4l18.36-6.12a2.19,2.19,0,0,1,2.59,1l9.86,16.28a2.2,2.2,0,0,1-.35,2.73L884,813.26a81.5,81.5,0,0,1,3,10.28l19,3.87a2.19,2.19,0,0,1,1.76,2.11l.4,19a2.22,2.22,0,0,1-1.68,2.19l-18.79,4.63a80.77,80.77,0,0,1-2.53,10.39l14.47,12.8a2.21,2.21,0,0,1,.47,2.72L890.83,898a2.22,2.22,0,0,1-2.55,1.06l-18.6-5.37a82.74,82.74,0,0,1-7.4,7.7l6.13,18.34a2.2,2.2,0,0,1-.95,2.59l-16.29,9.85a2.21,2.21,0,0,1-2.73-.36L835,917.84a81.65,81.65,0,0,1-10.29,3l-3.86,18.94a2.23,2.23,0,0,1-2.12,1.77l-19,.38Zm-17.89-27.73a2.43,2.43,0,0,1,.7.11A77.56,77.56,0,0,0,795,917.33a2.23,2.23,0,0,1,1.8,1.65l4.57,18.46,15.51-.32,3.8-18.62a2.23,2.23,0,0,1,1.73-1.73,77.19,77.19,0,0,0,12.4-3.56,2.2,2.2,0,0,1,2.38.53l13.18,13.68,13.28-8-6-18a2.19,2.19,0,0,1,.64-2.35,78.31,78.31,0,0,0,8.92-9.29,2.21,2.21,0,0,1,2.32-.73l18.3,5.28,7.48-13.57-14.24-12.59a2.23,2.23,0,0,1-.63-2.36,76,76,0,0,0,3.06-12.52,2.22,2.22,0,0,1,1.66-1.8l18.47-4.56-.32-15.49-18.65-3.8a2.2,2.2,0,0,1-1.72-1.73,76.42,76.42,0,0,0-3.58-12.38,2.22,2.22,0,0,1,.53-2.39l13.7-13.16-8-13.26-18.07,6a2.2,2.2,0,0,1-2.35-.64,78.31,78.31,0,0,0-9.3-8.91,2.2,2.2,0,0,1-.73-2.33l5.28-18.27-13.59-7.47-12.61,14.21a2.21,2.21,0,0,1-2.36.63,76.68,76.68,0,0,0-12.53-3.06,2.23,2.23,0,0,1-1.8-1.65l-4.57-18.46-15.51.32-3.81,18.63a2.19,2.19,0,0,1-1.73,1.72A77.84,77.84,0,0,0,779.47,769a2.22,2.22,0,0,1-2.38-.53L763.9,754.76l-13.27,8,6,18a2.19,2.19,0,0,1-.64,2.35,79.11,79.11,0,0,0-8.92,9.29,2.2,2.2,0,0,1-2.33.73l-18.29-5.28L719,801.48l14.23,12.6a2.17,2.17,0,0,1,.63,2.35A77.07,77.07,0,0,0,730.81,829a2.18,2.18,0,0,1-1.65,1.8l-18.48,4.56L711,850.8l18.66,3.81a2.18,2.18,0,0,1,1.72,1.72A76.83,76.83,0,0,0,735,868.72a2.21,2.21,0,0,1-.54,2.38l-13.69,13.16,8,13.26,18.06-6a2.21,2.21,0,0,1,2.36.63,76.75,76.75,0,0,0,9.3,8.91,2.22,2.22,0,0,1,.73,2.33l-5.28,18.27,13.59,7.48,12.61-14.22A2.19,2.19,0,0,1,781.78,914.16Zm25.37-21.88a51.18,51.18,0,1,1,1.06,0Zm-1-97.95a46.77,46.77,0,0,0,1,93.53h1a46.77,46.77,0,1,0-1.94-93.52Z" transform="translate(-333.25 -335)"/><path class="cls-1" d="M1609.86,673.1l.33,15.81,16.93,3.45a64.36,64.36,0,0,0,3.06,10.58l-12.44,12,8.19,13.52,16.4-5.47a65.06,65.06,0,0,0,8,7.62l-4.8,16.59,13.87,7.62,11.44-12.9a66,66,0,0,0,10.72,2.61l4.15,16.76,15.82-.32,3.45-16.92a65.13,65.13,0,0,0,10.6-3l12,12.43,13.53-8.18-5.47-16.38a67.19,67.19,0,0,0,7.62-7.93l16.61,4.79,7.63-13.85-12.93-11.43a64.8,64.8,0,0,0,2.62-10.7l16.78-4.14-.33-15.81-16.94-3.45a65.33,65.33,0,0,0-3-10.58l12.44-12-8.2-13.52-16.4,5.47a65.7,65.7,0,0,0-7.94-7.62l4.79-16.59-13.86-7.62L1713,616.79a65.66,65.66,0,0,0-10.71-2.61l-4.15-16.76-15.82.32-3.46,16.92a64.73,64.73,0,0,0-10.59,3.05l-12-12.43-13.54,8.18,5.48,16.38a65.62,65.62,0,0,0-7.62,7.93L1624,633l-7.62,13.85,12.92,11.43a65.79,65.79,0,0,0-2.61,10.7ZM1691,638.65a40.69,40.69,0,1,1-39.89,41.52A40.73,40.73,0,0,1,1691,638.65Z" transform="translate(-333.25 -335)"/><path d="M1685.66,763.46a2.21,2.21,0,0,1-2.15-1.68l-3.8-15.35a69.43,69.43,0,0,1-8.22-2L1661,756.25a2.23,2.23,0,0,1-2.72.47l-13.86-7.62a2.2,2.2,0,0,1-1.06-2.55l4.39-15.2a71.45,71.45,0,0,1-6.09-5.84l-15,5a2.22,2.22,0,0,1-2.59-.95L1615.85,716a2.2,2.2,0,0,1,.36-2.74l11.4-10.95a67.07,67.07,0,0,1-2.35-8.11l-15.52-3.17A2.2,2.2,0,0,1,1608,689l-.33-15.8a2.22,2.22,0,0,1,1.68-2.19l15.37-3.8a69.56,69.56,0,0,1,2-8.2l-11.84-10.48a2.21,2.21,0,0,1-.47-2.72l7.63-13.84a2.21,2.21,0,0,1,2.55-1.06l15.22,4.39a68.54,68.54,0,0,1,5.85-6.08l-5-15a2.19,2.19,0,0,1,1-2.59l13.54-8.18a2.2,2.2,0,0,1,2.73.36l11,11.38a67.85,67.85,0,0,1,8.13-2.33l3.16-15.5a2.23,2.23,0,0,1,2.12-1.77l15.82-.32a2.17,2.17,0,0,1,2.19,1.68l3.8,15.35a69.59,69.59,0,0,1,8.23,2l10.48-11.83a2.23,2.23,0,0,1,2.72-.47l13.87,7.62a2.21,2.21,0,0,1,1.05,2.55l-4.39,15.2a68.6,68.6,0,0,1,6.09,5.84l15-5a2.22,2.22,0,0,1,2.59,1l8.19,13.53a2.21,2.21,0,0,1-.35,2.74l-11.4,11a68.11,68.11,0,0,1,2.34,8.11L1774,667.6a2.22,2.22,0,0,1,1.77,2.12l.32,15.8a2.21,2.21,0,0,1-1.68,2.19l-15.37,3.8a67.64,67.64,0,0,1-2,8.2l11.84,10.48a2.21,2.21,0,0,1,.47,2.72l-7.63,13.84a2.19,2.19,0,0,1-2.54,1.06L1744,723.42a68.54,68.54,0,0,1-5.85,6.08l5,15a2.21,2.21,0,0,1-1,2.59l-13.54,8.18a2.22,2.22,0,0,1-2.74-.36l-11-11.38a68.39,68.39,0,0,1-8.13,2.33l-3.17,15.5a2.21,2.21,0,0,1-2.12,1.77l-15.82.32Zm-14.87-23.79a2.45,2.45,0,0,1,.71.11,63.08,63.08,0,0,0,10.35,2.53,2.21,2.21,0,0,1,1.8,1.65l3.73,15,12.29-.25,3.1-15.19a2.2,2.2,0,0,1,1.73-1.72,64.17,64.17,0,0,0,10.24-3,2.2,2.2,0,0,1,2.38.53l10.74,11.16,10.52-6.36-4.92-14.7a2.21,2.21,0,0,1,.64-2.36,64.29,64.29,0,0,0,7.36-7.67,2.23,2.23,0,0,1,2.33-.73l14.92,4.31,5.92-10.76L1753,702.06a2.21,2.21,0,0,1-.63-2.36,64.53,64.53,0,0,0,2.53-10.34,2.19,2.19,0,0,1,1.65-1.79l15.06-3.72-.25-12.28-15.21-3.1a2.19,2.19,0,0,1-1.72-1.73,62.94,62.94,0,0,0-3-10.22,2.22,2.22,0,0,1,.53-2.39l11.17-10.72-6.36-10.51-14.73,4.91a2.21,2.21,0,0,1-2.35-.63,65.26,65.26,0,0,0-7.68-7.37,2.2,2.2,0,0,1-.73-2.33l4.3-14.89-10.77-5.92-10.28,11.59a2.21,2.21,0,0,1-2.35.63,63.33,63.33,0,0,0-10.35-2.53,2.21,2.21,0,0,1-1.8-1.65l-3.73-15.05-12.29.25L1681,615.1a2.2,2.2,0,0,1-1.73,1.72,63.58,63.58,0,0,0-10.24,2.95,2.2,2.2,0,0,1-2.38-.53l-10.75-11.16-10.52,6.36,4.92,14.7a2.19,2.19,0,0,1-.63,2.36,64.4,64.4,0,0,0-7.37,7.67,2.22,2.22,0,0,1-2.33.73L1625,635.59l-5.93,10.76,11.61,10.26a2.2,2.2,0,0,1,.62,2.36,63.46,63.46,0,0,0-2.52,10.34,2.21,2.21,0,0,1-1.65,1.79l-15.07,3.73.26,12.27,15.2,3.1a2.23,2.23,0,0,1,1.73,1.73,63.34,63.34,0,0,0,3,10.22,2.22,2.22,0,0,1-.53,2.39l-11.17,10.72,6.37,10.51,14.72-4.91a2.21,2.21,0,0,1,2.35.63,65.28,65.28,0,0,0,7.69,7.37,2.18,2.18,0,0,1,.73,2.32l-4.31,14.9,10.78,5.92,10.27-11.59A2.21,2.21,0,0,1,1670.79,739.67Zm21.08-17.44a42.9,42.9,0,0,1-.89-85.79h.89a42.9,42.9,0,0,1,.89,85.8Zm-.8-81.37a38.48,38.48,0,0,0,.8,77h.8a38.48,38.48,0,1,0-1.6-76.95Z" transform="translate(-333.25 -335)"/><path class="cls-1" d="M1789.52,660.68l8.23,23.52,27-3.11a104,104,0,0,0,9.76,14.37l-12.77,24,18.9,16.27,21.87-16.23a104,104,0,0,0,15.63,7.53l1,27.22,24.49,4.63,10.81-24.94a103.52,103.52,0,0,0,17.32-1.33l14.43,23.09,23.53-8.22-3.11-27.05a103.81,103.81,0,0,0,14.36-9.75l24,12.77,16.27-18.89L2005,682.68a103.93,103.93,0,0,0,7.53-15.62l27.22-.94,4.63-24.49-25-10.82a103.41,103.41,0,0,0-1.33-17.31l23.1-14.42L2033,575.55l-27,3.11a104.86,104.86,0,0,0-9.76-14.37l12.77-24L1990.05,524l-21.87,16.22a104,104,0,0,0-15.63-7.53l-1-27.21-24.49-4.64-10.82,24.94a103.49,103.49,0,0,0-17.31,1.33l-14.43-23.09L1861,512.28l3.11,27a103,103,0,0,0-14.36,9.76l-24-12.77-16.27,18.89,16.23,21.87a103.93,103.93,0,0,0-7.53,15.62l-27.22.95-4.63,24.49,25,10.81a102.48,102.48,0,0,0,1.33,17.32Zm104.66-91.37a64.16,64.16,0,1,1-39.39,81.75A64.19,64.19,0,0,1,1894.18,569.31Z" transform="translate(-333.25 -335)"/><path d="M1903.63,761.09a1.9,1.9,0,0,1-.41,0l-24.49-4.63a2.23,2.23,0,0,1-1.8-2.1l-.9-25.76a108,108,0,0,1-13.32-6.42L1842,737.5a2.21,2.21,0,0,1-2.75-.1l-18.9-16.26a2.22,2.22,0,0,1-.51-2.71l12.09-22.73a104.13,104.13,0,0,1-8.32-12.25L1798,686.4a2.22,2.22,0,0,1-2.34-1.47l-8.23-23.53a2.21,2.21,0,0,1,.91-2.6l21.86-13.65a107.13,107.13,0,0,1-1.13-14.76l-23.62-10.24a2.2,2.2,0,0,1-1.29-2.43l4.63-24.49a2.22,2.22,0,0,1,2.1-1.8l25.77-.9a105.75,105.75,0,0,1,6.41-13.31l-15.36-20.71a2.2,2.2,0,0,1,.1-2.75l16.26-18.89a2.19,2.19,0,0,1,2.71-.51l22.73,12.09a105.82,105.82,0,0,1,12.25-8.32l-2.94-25.6a2.21,2.21,0,0,1,1.46-2.34l23.53-8.23a2.22,2.22,0,0,1,2.6.92l13.66,21.85a107.15,107.15,0,0,1,14.77-1.13L1925.08,500a2.21,2.21,0,0,1,2.44-1.29l24.49,4.64a2.21,2.21,0,0,1,1.8,2.09l.9,25.76a107.34,107.34,0,0,1,13.32,6.42l20.71-15.36a2.21,2.21,0,0,1,2.75.1l18.9,16.27a2.21,2.21,0,0,1,.51,2.71l-12.09,22.72a105.82,105.82,0,0,1,8.32,12.25l25.6-2.95a2.23,2.23,0,0,1,2.34,1.47l8.23,23.53a2.21,2.21,0,0,1-.91,2.6l-21.86,13.65a106.89,106.89,0,0,1,1.13,14.76l23.62,10.24a2.21,2.21,0,0,1,1.29,2.44l-4.63,24.49a2.21,2.21,0,0,1-2.1,1.79l-25.76.9a107.9,107.9,0,0,1-6.42,13.31L2023,703.24a2.21,2.21,0,0,1-.1,2.76l-16.26,18.89a2.22,2.22,0,0,1-2.71.51l-22.73-12.09a105.34,105.34,0,0,1-12.25,8.31l2.94,25.6a2.21,2.21,0,0,1-1.46,2.34l-23.53,8.23a2.2,2.2,0,0,1-2.6-.92L1930.66,735a107.15,107.15,0,0,1-14.77,1.13l-10.23,23.61A2.21,2.21,0,0,1,1903.63,761.09Zm-22.35-8.69,21,4,10.11-23.33a2.08,2.08,0,0,1,2-1.33,101.54,101.54,0,0,0,17-1.3,2.22,2.22,0,0,1,2.22,1l13.5,21.59,20.19-7.06-2.91-25.29a2.21,2.21,0,0,1,1.11-2.17,101.55,101.55,0,0,0,14.06-9.55,2.2,2.2,0,0,1,2.43-.23l22.45,11.94,14-16.22L2003.25,684a2.21,2.21,0,0,1-.13-2.44,102.41,102.41,0,0,0,7.37-15.29,2.2,2.2,0,0,1,2-1.42l25.45-.88,4-21-23.34-10.11a2.22,2.22,0,0,1-1.33-2.05,101.34,101.34,0,0,0-1.3-16.94,2.22,2.22,0,0,1,1-2.23l21.6-13.48-7.07-20.2-25.29,2.91a2.2,2.2,0,0,1-2.18-1.1,101,101,0,0,0-9.55-14.06,2.2,2.2,0,0,1-.23-2.43l11.94-22.45-16.22-14L1969.49,542a2.2,2.2,0,0,1-2.43.13,103.54,103.54,0,0,0-15.3-7.37,2.21,2.21,0,0,1-1.42-2l-.88-25.45-21-4-10.11,23.32a2.2,2.2,0,0,1-2,1.33,8.8,8.8,0,0,1-.89,0,102,102,0,0,0-16.08,1.3,2.2,2.2,0,0,1-2.22-1l-13.5-21.59-20.19,7.06,2.91,25.29a2.21,2.21,0,0,1-1.11,2.17,102.72,102.72,0,0,0-14.06,9.55,2.22,2.22,0,0,1-2.43.24l-22.45-11.94-14,16.21,15.17,20.45a2.21,2.21,0,0,1,.13,2.44,103.43,103.43,0,0,0-7.37,15.29,2.2,2.2,0,0,1-2,1.42l-25.45.88-4,21,23.34,10.11a2.22,2.22,0,0,1,1.33,2.05,100.73,100.73,0,0,0,1.3,16.95,2.2,2.2,0,0,1-1,2.22l-21.59,13.48,7.06,20.2,25.3-2.91a2.21,2.21,0,0,1,2.18,1.11,101,101,0,0,0,9.55,14.06,2.2,2.2,0,0,1,.23,2.43l-11.94,22.44,16.22,14,20.45-15.17a2.21,2.21,0,0,1,2.44-.13A102,102,0,0,0,1879,725a2.2,2.2,0,0,1,1.41,2Zm34.15-56.15a66.39,66.39,0,1,1,21.86-3.72A66.5,66.5,0,0,1,1915.43,696.25Zm-20.52-124.86a62,62,0,1,0,78.95,38A61.58,61.58,0,0,0,1894.91,571.39Z" transform="translate(-333.25 -335)"/><path d="M717.11,1497.52a2.21,2.21,0,0,1-1.56-3.77l190.94-190.91a2.21,2.21,0,0,1,3.13,3.12l-191,190.91A2.21,2.21,0,0,1,717.11,1497.52Z" transform="translate(-333.25 -335)"/><path d="M762.32,1371.75a2.21,2.21,0,0,1-1.56-3.77l152.69-152.66a2.21,2.21,0,0,1,3.13,3.12L763.88,1371.1A2.21,2.21,0,0,1,762.32,1371.75Z" transform="translate(-333.25 -335)"/><path d="M550,897.3a2.17,2.17,0,0,1-1.14-.32,2.2,2.2,0,0,1-.74-3,717.5,717.5,0,0,1,471.38-330,2.21,2.21,0,0,1,.87,4.33,713.08,713.08,0,0,0-468.48,328A2.18,2.18,0,0,1,550,897.3Z" transform="translate(-333.25 -335)"/><path d="M459.83,917.11a2.26,2.26,0,0,1-1.06-.27,2.21,2.21,0,0,1-.87-3A803.72,803.72,0,0,1,624,704.22,820.94,820.94,0,0,1,859.87,555.3a2.21,2.21,0,0,1,1.69,4.08C691.31,630.13,549.32,756.77,461.77,916A2.2,2.2,0,0,1,459.83,917.11Z" transform="translate(-333.25 -335)"/><path d="M942.39,545.2l-.3,0a2.22,2.22,0,0,1-1.81-1.53L930,511a2.22,2.22,0,0,1,.36-2,2.26,2.26,0,0,1,1.87-.85l30.47,1.66a2.2,2.2,0,0,1,1.73,3.41l-20.18,31A2.22,2.22,0,0,1,942.39,545.2Zm-7.23-32.47,7.93,25.14L958.63,514Z" transform="translate(-333.25 -335)"/><path d="M1592.07,408.31a21.31,21.31,0,1,1,21.25-23.16,21.32,21.32,0,0,1-19.4,23.08C1593.3,408.28,1592.68,408.31,1592.07,408.31Zm-16.83-19.86a16.91,16.91,0,1,0,3.9-12.33A16.93,16.93,0,0,0,1575.24,388.45Z" transform="translate(-333.25 -335)"/><path d="M1766.71,417.2h-.11l-11.71-.57a2.21,2.21,0,1,1,.22-4.41l11.7.57a2.21,2.21,0,0,1-.1,4.41Z" transform="translate(-333.25 -335)"/><path d="M1725.73,415.2h-.11l-11.71-.57a2.21,2.21,0,0,1-2.1-2.31,2.23,2.23,0,0,1,2.32-2.1l11.7.57a2.21,2.21,0,0,1-.1,4.42Z" transform="translate(-333.25 -335)"/><path d="M1741.24,401.5h-.13a2.2,2.2,0,0,1-2.07-2.34l.7-11.52a2.21,2.21,0,0,1,4.41.26l-.71,11.53A2.2,2.2,0,0,1,1741.24,401.5Z" transform="translate(-333.25 -335)"/><path d="M1738.78,441.85h-.13a2.2,2.2,0,0,1-2.07-2.33l.7-11.53a2.21,2.21,0,0,1,4.41.27l-.71,11.52A2.2,2.2,0,0,1,1738.78,441.85Z" transform="translate(-333.25 -335)"/><path d="M680.53,1631.83A109.68,109.68,0,1,1,462,1647.4l7.14-571.69a77.62,77.62,0,0,1,154.64-11Z" transform="translate(-333.25 -335)"/><path d="M571.76,1757.11a111.86,111.86,0,0,1-111.95-109.66L467,1075.68a79.83,79.83,0,0,1,159-11.27l56.73,567.17a111.9,111.9,0,0,1-102.5,125.21C577.4,1757,574.58,1757.11,571.76,1757.11ZM546.88,998.73c-2,0-3.91.07-5.88.23a75.46,75.46,0,0,0-69.63,76.7l-7.14,571.77a107.47,107.47,0,1,0,214.11-15.33.09.09,0,0,1,0,0L621.6,1064.9A75.27,75.27,0,0,0,546.88,998.73Z" transform="translate(-333.25 -335)"/><path d="M791.5,1727.29a47.84,47.84,0,0,1-45.92-34.41l-21.87-74.7A34.1,34.1,0,0,0,691,1593.66H415.27a35.83,35.83,0,0,0-35.83,35.82v246.78H850.19V1763.12a35.83,35.83,0,0,0-35.83-35.83Z" transform="translate(-333.25 -335)"/><path d="M850.19,1878.47H379.44a2.21,2.21,0,0,1-2.21-2.21V1629.48a38.07,38.07,0,0,1,38-38H691a36.51,36.51,0,0,1,34.85,26.11l21.86,74.7a45.89,45.89,0,0,0,43.81,32.82h22.86a38.08,38.08,0,0,1,38,38v113.14A2.21,2.21,0,0,1,850.19,1878.47Zm-468.55-4.42H848V1763.12a33.66,33.66,0,0,0-33.62-33.62H791.5a50.32,50.32,0,0,1-48-36l-21.87-74.7A32.06,32.06,0,0,0,691,1595.87H415.27a33.66,33.66,0,0,0-33.63,33.61Z" transform="translate(-333.25 -335)"/><path class="cls-1" d="M832.16,1727.29a47.85,47.85,0,0,1-45.93-34.41l-21.86-74.7a34.11,34.11,0,0,0-32.74-24.52H455.93a35.83,35.83,0,0,0-35.84,35.82v246.78H890.85V1763.12A35.83,35.83,0,0,0,855,1727.29Z" transform="translate(-333.25 -335)"/><path d="M890.85,1878.47H420.09a2.21,2.21,0,0,1-2.21-2.21V1629.48a38.08,38.08,0,0,1,38.05-38h275.7a36.5,36.5,0,0,1,34.85,26.11l21.87,74.7a45.88,45.88,0,0,0,43.81,32.82H855a38.08,38.08,0,0,1,38,38v113.14A2.21,2.21,0,0,1,890.85,1878.47Zm-468.55-4.42H888.64V1763.12A33.66,33.66,0,0,0,855,1729.5H832.16a50.34,50.34,0,0,1-48-36l-21.86-74.7a32.08,32.08,0,0,0-30.62-22.93H455.93a33.66,33.66,0,0,0-33.63,33.61Z" transform="translate(-333.25 -335)"/><ellipse class="cls-1" cx="520.29" cy="1432.61" rx="19.47" ry="19.47"/><rect y="1520.88" width="605.1" height="26.98"/><path d="M2122.37,1717.44,1041.06,1567.07a54.39,54.39,0,0,1-47.5-53.94L978.73,758.9s24.65-17.77,38.62-24.58a42,42,0,0,1,23.81-3.89L2119.25,867.91a54.39,54.39,0,0,1,47.5,53.94v740.79a42.11,42.11,0,0,1-15.43,32.65C2142.69,1702.38,2122.37,1717.44,2122.37,1717.44Z" transform="translate(-333.25 -335)"/><path class="cls-1" d="M2089.37,1727.46,1011.27,1590A54.37,54.37,0,0,1,963.78,1536V795.25a42.25,42.25,0,0,1,47.6-41.91L2089.47,890.82a54.39,54.39,0,0,1,47.5,53.94v740.79A42.25,42.25,0,0,1,2089.37,1727.46Z" transform="translate(-333.25 -335)"/><path class="cls-1" d="M2066.46,1696.93,1037,1565.65a39.55,39.55,0,0,1-34.54-39.22V811.86a28.22,28.22,0,0,1,31.79-28L2063.71,915.15a39.55,39.55,0,0,1,34.54,39.22v714.57A28.22,28.22,0,0,1,2066.46,1696.93Z" transform="translate(-333.25 -335)"/><path d="M2070,1699.36a31.09,31.09,0,0,1-3.85-.24L1036.76,1567.84a41.84,41.84,0,0,1-36.47-41.41V811.86a30.43,30.43,0,0,1,34.28-30.18L2064,913a41.84,41.84,0,0,1,36.47,41.41v714.57a30.43,30.43,0,0,1-30.43,30.42Zm-3.29-4.62a26,26,0,0,0,29.3-25.8V954.37a37.41,37.41,0,0,0-32.61-37L1034,786.06a26,26,0,0,0-29.3,25.8v714.57a37.41,37.41,0,0,0,32.61,37Z" transform="translate(-333.25 -335)"/><path d="M2094.71,1730a44.3,44.3,0,0,1-5.62-.36L1011,1592.17A56.71,56.71,0,0,1,961.57,1536V1232.45a2.21,2.21,0,1,1,4.42,0V1536a52.26,52.26,0,0,0,45.56,51.74l1078.1,137.49a40,40,0,0,0,45.11-39.72V944.76A52.26,52.26,0,0,0,2089.19,893l-555.64-70.87a2.21,2.21,0,0,1,.56-4.38l555.64,70.86a56.7,56.7,0,0,1,49.42,56.13v740.79a44.44,44.44,0,0,1-44.46,44.46Z" transform="translate(-333.25 -335)"/><path d="M963.78,986.23a2.21,2.21,0,0,1-2.21-2.21V795.25a44.47,44.47,0,0,1,50.09-44.11l253.88,32.38a2.21,2.21,0,1,1-.57,4.38L1011.1,755.53A40,40,0,0,0,966,795.25V984A2.21,2.21,0,0,1,963.78,986.23Z" transform="translate(-333.25 -335)"/><path d="M1460.41,2163.74l-1108.78-143a15.29,15.29,0,0,1-13.46-15.65c.08-5,.48-40.3.48-40.3l586.27-335.16c29.38-16.78,67.38-23.26,100.93-19l1094.78,141.23a18.75,18.75,0,0,1,14.85,11.23l1.76,4.12s-.94,29.44-.56,36.31a15.05,15.05,0,0,1-7.75,14.15l-571.55,326.79A155.7,155.7,0,0,1,1460.41,2163.74Z" transform="translate(-333.25 -335)"/><path class="cls-1" d="M1460.41,2124.46,355.6,1981.74c-14.67-1.88-18.53-21.33-5.69-28.66L918.4,1628.39a155.72,155.72,0,0,1,97-19.23l1104.82,142.72c14.66,1.88,18.52,21.33,5.68,28.67l-568.48,324.68A155.63,155.63,0,0,1,1460.41,2124.46Z" transform="translate(-333.25 -335)"/><path d="M1479.94,2127.91a156.36,156.36,0,0,1-19.81-1.26L355.31,1983.93a17.61,17.61,0,0,1-6.49-32.77L917.3,1626.48a158.81,158.81,0,0,1,98.35-19.51l1104.81,142.72a17.62,17.62,0,0,1,6.5,32.77l-568.49,324.69A158.9,158.9,0,0,1,1479.94,2127.91Zm-19.25-5.64a154.3,154.3,0,0,0,95.59-19l568.49-324.68a13.2,13.2,0,0,0-4.87-24.56L1015.08,1611.35a154.41,154.41,0,0,0-95.59,19L351,1955a13.2,13.2,0,0,0,4.87,24.55Z" transform="translate(-333.25 -335)"/><path class="cls-1" d="M1676.72,1944.23l-958-124.66c-13.24-1.69-16.73-19.26-5.13-25.88l225.26-127.36a140.6,140.6,0,0,1,87.58-17.37l958,124.66c13.24,1.7,16.73,19.27,5.13,25.89L1764.3,1926.86A140.53,140.53,0,0,1,1676.72,1944.23Z" transform="translate(-333.25 -335)"/><path d="M1694.36,1947.56a139.66,139.66,0,0,1-17.92-1.14h0l-958-124.66a16.12,16.12,0,0,1-5.94-30l225.26-127.36a143.62,143.62,0,0,1,89-17.64l958,124.66a16.13,16.13,0,0,1,5.94,30l-225.26,127.36A143.81,143.81,0,0,1,1694.36,1947.56ZM1677,1942a139.18,139.18,0,0,0,86.2-17.09l225.26-127.36a11.71,11.71,0,0,0-4.32-21.78l-958-124.66a139.26,139.26,0,0,0-86.2,17.1L714.66,1795.61a11.7,11.7,0,0,0,4.32,21.77Z" transform="translate(-333.25 -335)"/><path d="M1964.83,1015.33l-.25,0-444.1-50.1a2.21,2.21,0,0,1-2-2.2l.08-23.15a2.22,2.22,0,0,1,2.46-2.19l444.1,50.11a2.19,2.19,0,0,1,2,2.2l-.08,23.15a2.21,2.21,0,0,1-2.21,2.2ZM1522.94,961l439.69,49.61.07-18.71L1523,942.34Z" transform="translate(-333.25 -335)"/><path d="M2065.46,1064.86h-.25l-452.48-51a2.22,2.22,0,0,1-2-2.21l.08-23.14a2.29,2.29,0,0,1,.74-1.65,2.24,2.24,0,0,1,1.72-.54l452.48,51a2.21,2.21,0,0,1,2,2.2l-.08,23.15a2.19,2.19,0,0,1-.74,1.64A2.23,2.23,0,0,1,2065.46,1064.86Zm-450.27-55.23,448.07,50.55.07-18.7-448.07-50.56Z" transform="translate(-333.25 -335)"/><path d="M2010.76,1096.87l-.25,0-233.88-26.38a2.22,2.22,0,0,1-2-2.2l.09-23.15a2.21,2.21,0,0,1,2.45-2.19l233.88,26.39a2.19,2.19,0,0,1,2,2.2l-.08,23.15a2.21,2.21,0,0,1-2.21,2.2ZM1779.1,1066.3l229.46,25.89.07-18.7-229.46-25.89Z" transform="translate(-333.25 -335)"/><path d="M1963.71,1320.63h-.25l-444.1-50.1a2.21,2.21,0,0,1-2-2.21l.08-23.14a2.2,2.2,0,0,1,2.46-2.19l444.1,50.11a2.19,2.19,0,0,1,2,2.2l-.08,23.14a2.19,2.19,0,0,1-2.21,2.2Zm-441.89-54.28L1961.51,1316l.07-18.71-439.69-49.6Z" transform="translate(-333.25 -335)"/><path d="M2064.34,1370.17l-.25,0-452.48-51.05a2.2,2.2,0,0,1-2-2.2l.09-23.14a2.2,2.2,0,0,1,2.45-2.19l452.49,51a2.21,2.21,0,0,1,2,2.2l-.09,23.15a2.21,2.21,0,0,1-2.21,2.2Zm-450.27-55.23,448.07,50.55.07-18.71-448.07-50.55Z" transform="translate(-333.25 -335)"/><path d="M2064.2,1408.33H2064l-288.44-32.55a2.2,2.2,0,0,1-2-2.2l.09-23.15a2.2,2.2,0,0,1,2.46-2.18l288.43,32.54a2.22,2.22,0,0,1,2,2.2l-.09,23.15a2.18,2.18,0,0,1-.74,1.64A2.23,2.23,0,0,1,2064.2,1408.33ZM1778,1371.61l284,32,.07-18.7-284-32Z" transform="translate(-333.25 -335)"/><path d="M1879,1424h-.25l-269.12-30.37a2.2,2.2,0,0,1-2-2.2l.09-23.15a2.2,2.2,0,0,1,2.45-2.18l269.12,30.36a2.21,2.21,0,0,1,2,2.2l-.08,23.15a2.19,2.19,0,0,1-.74,1.64A2.23,2.23,0,0,1,1879,1424Zm-266.9-34.54,264.7,29.86.07-18.7-264.71-29.87Z" transform="translate(-333.25 -335)"/><path d="M1964.41,1129.82l-.25,0-444.1-50.1a2.21,2.21,0,0,1-2-2.2l.08-23.15a2.22,2.22,0,0,1,2.46-2.19l444.1,50.11a2.19,2.19,0,0,1,2,2.2l-.08,23.15a2.21,2.21,0,0,1-2.21,2.2Zm-441.89-54.29,439.69,49.61.07-18.71-439.69-49.6Z" transform="translate(-333.25 -335)"/><path d="M2065,1179.35h-.25l-452.48-51a2.22,2.22,0,0,1-2-2.21l.09-23.14a2.21,2.21,0,0,1,2.45-2.19l452.48,51a2.21,2.21,0,0,1,2,2.2l-.08,23.15a2.19,2.19,0,0,1-.74,1.64A2.23,2.23,0,0,1,2065,1179.35Zm-450.27-55.23,448.07,50.55.07-18.7-448.07-50.55Z" transform="translate(-333.25 -335)"/><path d="M1955.64,1243.37l-.25,0-179.32-20.23a2.21,2.21,0,0,1-2-2.2l.09-23.15a2.21,2.21,0,0,1,2.45-2.19L1956,1215.82a2.19,2.19,0,0,1,2,2.2l-.08,23.15a2.21,2.21,0,0,1-2.21,2.2ZM1778.54,1219l174.9,19.74.07-18.71-174.9-19.73Z" transform="translate(-333.25 -335)"/><path d="M2009.11,1287.55h-.25l-179.31-20.24a2.19,2.19,0,0,1-2-2.2l.08-23.14a2.2,2.2,0,0,1,2.46-2.19L2009.44,1260a2.22,2.22,0,0,1,2,2.2l-.09,23.15a2.19,2.19,0,0,1-.74,1.64A2.23,2.23,0,0,1,2009.11,1287.55ZM1832,1263.14l174.9,19.73.07-18.7-174.9-19.74Z" transform="translate(-333.25 -335)"/><path d="M2064.9,1217.51h-.25L1776.21,1185a2.22,2.22,0,0,1-2-2.2l.09-23.15a2.21,2.21,0,0,1,2.45-2.19L2065.23,1190a2.21,2.21,0,0,1,2,2.21l-.08,23.14a2.19,2.19,0,0,1-2.21,2.2Zm-286.22-36.72,284,32,.07-18.71-284-32Z" transform="translate(-333.25 -335)"/><path d="M1963.15,1473.29h-.25l-444.1-50.11a2.21,2.21,0,0,1-2-2.2l.08-23.15a2.22,2.22,0,0,1,2.46-2.19l444.1,50.11a2.21,2.21,0,0,1,2,2.2l-.08,23.15a2.19,2.19,0,0,1-.74,1.64A2.23,2.23,0,0,1,1963.15,1473.29ZM1521.26,1419,1961,1468.61l.07-18.7-439.69-49.61Z" transform="translate(-333.25 -335)"/><path d="M2049.23,1521.18H2049l-437.93-49.41a2.22,2.22,0,0,1-2-2.21l.09-23.14a2.21,2.21,0,0,1,2.45-2.19l437.93,49.41a2.21,2.21,0,0,1,2,2.2l-.08,23.15a2.19,2.19,0,0,1-.74,1.64A2.23,2.23,0,0,1,2049.23,1521.18Zm-435.72-53.59L2047,1516.5l.07-18.7-433.51-48.91Z" transform="translate(-333.25 -335)"/><path d="M2063.64,1561h-.25L1775,1528.43a2.22,2.22,0,0,1-2-2.2l.09-23.15a2.21,2.21,0,0,1,2.45-2.19L2064,1533.44a2.19,2.19,0,0,1,2,2.2l-.08,23.14a2.19,2.19,0,0,1-2.21,2.2Zm-286.22-36.72,284,32,.07-18.71-284-32Z" transform="translate(-333.25 -335)"/><path d="M1962.73,1587.78h-.25l-444.1-50.11a2.21,2.21,0,0,1-2-2.2l.08-23.15a2.19,2.19,0,0,1,.74-1.64,2.24,2.24,0,0,1,1.72-.55l444.1,50.11a2.21,2.21,0,0,1,2,2.2l-.08,23.15a2.19,2.19,0,0,1-.74,1.64A2.23,2.23,0,0,1,1962.73,1587.78Zm-441.89-54.29,439.69,49.61.07-18.7-439.69-49.61Z" transform="translate(-333.25 -335)"/><path d="M2063.36,1637.31h-.25l-452.48-51a2.22,2.22,0,0,1-2-2.2l.09-23.15a2.21,2.21,0,0,1,2.45-2.19l452.48,51a2.21,2.21,0,0,1,2,2.2l-.08,23.15a2.18,2.18,0,0,1-.74,1.64A2.23,2.23,0,0,1,2063.36,1637.31Zm-450.26-55.23,448.06,50.55.07-18.7-448.07-50.55Z" transform="translate(-333.25 -335)"/><path d="M1482.78,1227.74h-.25l-43.26-4.88a2.21,2.21,0,0,1-2-2.21l.08-22.24a2.2,2.2,0,0,1,2.45-2.18l43.27,4.88a2.22,2.22,0,0,1,2,2.2l-.08,22.24a2.27,2.27,0,0,1-.74,1.64A2.23,2.23,0,0,1,1482.78,1227.74Zm-41-9.06,38.85,4.38.06-17.79-38.84-4.39Z" transform="translate(-333.25 -335)"/><path d="M1485.38,961.24l-.25,0L1440,956.14a2.21,2.21,0,0,1-2-2.21l.08-23.14a2.25,2.25,0,0,1,.74-1.64,2.21,2.21,0,0,1,1.72-.55l45.09,5.09a2.2,2.2,0,0,1,2,2.2l-.09,23.15a2.21,2.21,0,0,1-.74,1.64A2.18,2.18,0,0,1,1485.38,961.24ZM1442.5,952l40.68,4.59.07-18.71-40.68-4.58Z" transform="translate(-333.25 -335)"/><path d="M1485.51,926.16l-.25,0-45.09-5.08a2.21,2.21,0,0,1-2-2.2l.08-23.15a2.22,2.22,0,0,1,2.46-2.19l45.09,5.09a2.21,2.21,0,0,1,2,2.2l-.09,23.15a2.21,2.21,0,0,1-2.2,2.2Zm-42.88-9.27,40.68,4.59.06-18.7-40.67-4.59Z" transform="translate(-333.25 -335)"/><path d="M1484.89,999.36h-.25l-44.74-5.05a2.22,2.22,0,0,1-2-2.2L1438,969a2.27,2.27,0,0,1,.74-1.64,2.21,2.21,0,0,1,1.72-.55l44.74,5a2.21,2.21,0,0,1,2,2.2l-.08,23.15a2.18,2.18,0,0,1-.74,1.64A2.23,2.23,0,0,1,1484.89,999.36Zm-42.53-9.23,40.33,4.55.07-18.7-40.33-4.55Z" transform="translate(-333.25 -335)"/><path d="M1483.23,1037.35H1483l-42.47-4.79a2.21,2.21,0,0,1-2-2.2l.08-23.15a2.22,2.22,0,0,1,2.46-2.19l42.47,4.79a2.22,2.22,0,0,1,2,2.21l-.09,23.14a2.19,2.19,0,0,1-2.21,2.2Zm-40.25-9,38,4.3.07-18.71-38-4.29Z" transform="translate(-333.25 -335)"/><path d="M1483.32,1075.54h-.25l-43.22-4.88a2.19,2.19,0,0,1-2-2.2l.08-23.15a2.2,2.2,0,0,1,2.46-2.18l43.22,4.87a2.23,2.23,0,0,1,2,2.21l-.09,23.14a2.21,2.21,0,0,1-2.21,2.2Zm-41-9,38.81,4.37.07-18.7-38.81-4.38Z" transform="translate(-333.25 -335)"/><path d="M1483,1113.68h-.24l-43.23-4.88a2.2,2.2,0,0,1-2-2.2l.08-23.15a2.23,2.23,0,0,1,.74-1.64,2.15,2.15,0,0,1,1.72-.54l43.23,4.87a2.22,2.22,0,0,1,2,2.2l-.09,23.15a2.18,2.18,0,0,1-.74,1.64A2.21,2.21,0,0,1,1483,1113.68Zm-41-9.06,38.81,4.38.07-18.7-38.81-4.38Z" transform="translate(-333.25 -335)"/><path d="M1483.76,1188.6l-.25,0-42.84-4.83a2.21,2.21,0,0,1-2-2.2l.09-23.15a2.2,2.2,0,0,1,2.45-2.18l42.84,4.83a2.22,2.22,0,0,1,2,2.2l-.09,23.15a2.19,2.19,0,0,1-.74,1.64A2.23,2.23,0,0,1,1483.76,1188.6Zm-40.62-9,38.42,4.34.07-18.7-38.42-4.34Z" transform="translate(-333.25 -335)"/><path d="M1482.82,1150.31h-.25l-41-4.62a2.22,2.22,0,0,1-2-2.2l.08-23.15a2.25,2.25,0,0,1,.74-1.64,2.19,2.19,0,0,1,1.72-.55l41,4.62a2.21,2.21,0,0,1,2,2.21l-.08,23.14a2.25,2.25,0,0,1-.74,1.64A2.18,2.18,0,0,1,1482.82,1150.31Zm-38.74-8.8,36.54,4.12.07-18.7-36.54-4.12Z" transform="translate(-333.25 -335)"/><path d="M1482.35,1343.67l-.25,0-43.26-4.88a2.22,2.22,0,0,1-2-2.2l.08-22.24a2.19,2.19,0,0,1,.74-1.64,2.24,2.24,0,0,1,1.72-.55l43.26,4.88a2.21,2.21,0,0,1,2,2.21l-.08,22.24a2.21,2.21,0,0,1-2.21,2.2Zm-41-9.07,38.85,4.39.07-17.8-38.85-4.38Z" transform="translate(-333.25 -335)"/><path d="M1483.34,1304.52h-.25l-42.84-4.83a2.21,2.21,0,0,1-2-2.21l.08-23.14a2.22,2.22,0,0,1,2.46-2.19l42.84,4.83a2.22,2.22,0,0,1,2,2.21l-.09,23.14a2.18,2.18,0,0,1-.74,1.64A2.15,2.15,0,0,1,1483.34,1304.52Zm-40.63-9,38.43,4.33.07-18.7-38.43-4.33Z" transform="translate(-333.25 -335)"/><path d="M1482.39,1266.24l-.24,0-41-4.62a2.2,2.2,0,0,1-2-2.2l.09-23.15a2.2,2.2,0,0,1,2.46-2.18l41,4.62a2.2,2.2,0,0,1,2,2.2l-.09,23.15a2.21,2.21,0,0,1-2.21,2.2Zm-38.73-8.8,36.53,4.12.07-18.71-36.53-4.12Z" transform="translate(-333.25 -335)"/><path d="M1481.52,1569.41h-.24l-43.27-4.88a2.22,2.22,0,0,1-2-2.21l.08-22.23a2.25,2.25,0,0,1,.74-1.64,2.21,2.21,0,0,1,1.72-.55l43.26,4.88a2.21,2.21,0,0,1,2,2.21l-.08,22.23a2.21,2.21,0,0,1-2.21,2.2Zm-41-9.06,38.84,4.38.07-17.79-38.85-4.38Z" transform="translate(-333.25 -335)"/><path d="M1482,1379l-.25,0-42.47-4.79a2.21,2.21,0,0,1-2-2.2l.09-23.15a2.19,2.19,0,0,1,.74-1.64,2.15,2.15,0,0,1,1.72-.54l42.46,4.79a2.19,2.19,0,0,1,2,2.2l-.08,23.15a2.21,2.21,0,0,1-2.21,2.2Zm-40.25-9,38,4.3.07-18.71-38-4.29Z" transform="translate(-333.25 -335)"/><path d="M1482.07,1417.22l-.25,0-43.22-4.88a2.21,2.21,0,0,1-2-2.2l.09-23.14a2.2,2.2,0,0,1,2.46-2.19l43.22,4.88a2.19,2.19,0,0,1,2,2.2l-.08,23.14a2.21,2.21,0,0,1-2.21,2.21Zm-41-9.06,38.81,4.38.07-18.71-38.81-4.38Z" transform="translate(-333.25 -335)"/><path d="M1481.7,1455.35h-.25l-43.22-4.88a2.19,2.19,0,0,1-2-2.2l.08-23.15a2.2,2.2,0,0,1,2.46-2.18l43.22,4.87a2.21,2.21,0,0,1,2,2.21l-.08,23.14a2.21,2.21,0,0,1-2.21,2.2Zm-41-9,38.81,4.37.07-18.7-38.81-4.38Z" transform="translate(-333.25 -335)"/><path d="M1482.51,1530.27h-.25l-42.84-4.84a2.2,2.2,0,0,1-2-2.2l.08-23.15a2.28,2.28,0,0,1,.74-1.64,2.24,2.24,0,0,1,1.72-.54l42.84,4.83a2.21,2.21,0,0,1,2,2.2l-.08,23.15a2.27,2.27,0,0,1-.74,1.64A2.23,2.23,0,0,1,1482.51,1530.27Zm-40.63-9,38.43,4.33.07-18.7-38.43-4.34Z" transform="translate(-333.25 -335)"/><path d="M1481.57,1492h-.25l-41-4.62a2.2,2.2,0,0,1-2-2.2l.08-23.15a2.22,2.22,0,0,1,2.46-2.19l41,4.63a2.2,2.2,0,0,1,2,2.2l-.09,23.14a2.21,2.21,0,0,1-.74,1.65A2.19,2.19,0,0,1,1481.57,1492Zm-38.74-8.8,36.54,4.13.07-18.71-36.54-4.12Z" transform="translate(-333.25 -335)"/><path d="M1251,894.63h-.25L1037,870.5a2.21,2.21,0,0,1-2-2.2l.08-22.24a2.21,2.21,0,0,1,2.45-2.19L1251.35,868a2.2,2.2,0,0,1,2,2.2l-.08,22.24a2.19,2.19,0,0,1-.74,1.64A2.23,2.23,0,0,1,1251,894.63Zm-211.56-28.3L1248.82,890l.07-17.79-209.37-23.62Z" transform="translate(-333.25 -335)"/><path d="M1293.44,938.05h-.25l-225.34-25.43a2.2,2.2,0,0,1-2-2.2l.08-23.15a2.28,2.28,0,0,1,.74-1.64,2.17,2.17,0,0,1,1.72-.54l225.34,25.42a2.21,2.21,0,0,1,2,2.2l-.08,23.15a2.19,2.19,0,0,1-.74,1.64A2.23,2.23,0,0,1,1293.44,938.05Zm-223.13-29.6,220.93,24.92.07-18.7-220.93-24.93Z" transform="translate(-333.25 -335)"/><path d="M1357.14,983.42l-.25,0-262.53-29.62a2.19,2.19,0,0,1-2-2.2l.08-23.15a2.21,2.21,0,0,1,.74-1.64,2.24,2.24,0,0,1,1.72-.54l262.53,29.62a2.19,2.19,0,0,1,2,2.2l-.08,23.15a2.21,2.21,0,0,1-2.21,2.2Zm-260.32-33.8,258.12,29.12L1355,960l-258.12-29.12Z" transform="translate(-333.25 -335)"/><path d="M1395.59,1025.93h-.24l-219.09-24.72a2.2,2.2,0,0,1-2-2.2l.08-23.15a2.28,2.28,0,0,1,.74-1.64,2.17,2.17,0,0,1,1.72-.54l219.09,24.71a2.22,2.22,0,0,1,2,2.21l-.09,23.14a2.19,2.19,0,0,1-2.21,2.2ZM1178.72,997l214.68,24.23.07-18.71-214.68-24.22Z" transform="translate(-333.25 -335)"/><path d="M1209.28,1195.35H1209l-173.15-19.54a2.19,2.19,0,0,1-2-2.2l.08-22.24a2.2,2.2,0,0,1,2.45-2.18l173.16,19.53a2.22,2.22,0,0,1,2,2.21l-.09,22.23a2.21,2.21,0,0,1-.74,1.65A2.19,2.19,0,0,1,1209.28,1195.35Zm-170.94-23.71,168.74,19,.06-17.8-168.73-19Z" transform="translate(-333.25 -335)"/><path d="M1216.83,1234.84h-.25L1090,1220.54a2.2,2.2,0,0,1-2-2.2l.08-23.15a2.2,2.2,0,0,1,2.46-2.18l126.62,14.28a2.21,2.21,0,0,1,2,2.2l-.08,23.15a2.19,2.19,0,0,1-.74,1.64A2.23,2.23,0,0,1,1216.83,1234.84Zm-124.41-18.47,122.21,13.79.07-18.7-122.21-13.79Z" transform="translate(-333.25 -335)"/><path d="M1267,1278.68l-.24,0L1145.5,1265a2.22,2.22,0,0,1-2-2.21l.09-23.14a2.21,2.21,0,0,1,2.45-2.19l121.22,13.68a2.2,2.2,0,0,1,2,2.2l-.09,23.15a2.21,2.21,0,0,1-2.21,2.2Zm-119-17.86,116.8,13.18.06-18.71L1148,1242.12Z" transform="translate(-333.25 -335)"/><path d="M1352,1326.45h-.25l-153.39-17.31a2.21,2.21,0,0,1-2-2.2l.08-23.15a2.27,2.27,0,0,1,.74-1.64,2.17,2.17,0,0,1,1.72-.54l153.39,17.3a2.21,2.21,0,0,1,2,2.2l-.08,23.15a2.18,2.18,0,0,1-.74,1.64A2.23,2.23,0,0,1,1352,1326.45ZM1200.83,1305l149,16.81.07-18.7-149-16.81Z" transform="translate(-333.25 -335)"/><path d="M1194.27,1041.4H1194l-154.82-17.47a2.21,2.21,0,0,1-2-2.2l.08-23.15a2.22,2.22,0,0,1,2.46-2.19l154.82,17.47a2.22,2.22,0,0,1,2,2.2l-.09,23.15a2.21,2.21,0,0,1-2.21,2.2Zm-152.6-21.65,150.41,17,.06-18.7-150.4-17Z" transform="translate(-333.25 -335)"/><path d="M1391.48,1101.83l-.25,0-239.22-27a2.19,2.19,0,0,1-2-2.2l.08-23.15a2.28,2.28,0,0,1,.74-1.64,2.24,2.24,0,0,1,1.72-.54l239.22,27a2.19,2.19,0,0,1,2,2.2l-.08,23.15a2.28,2.28,0,0,1-.74,1.64A2.23,2.23,0,0,1,1391.48,1101.83Zm-237-31.17,234.81,26.49.07-18.7L1154.54,1052Z" transform="translate(-333.25 -335)"/><path d="M1195.93,1117.88h-.25l-154.82-17.47a2.2,2.2,0,0,1-2-2.2l.09-23.15a2.2,2.2,0,0,1,2.45-2.18l154.82,17.46a2.21,2.21,0,0,1,2,2.21l-.08,23.14a2.19,2.19,0,0,1-2.21,2.2Zm-152.6-21.64,150.4,17,.07-18.71-150.4-17Z" transform="translate(-333.25 -335)"/><path d="M1393.13,1178.31h-.24l-239.23-27a2.22,2.22,0,0,1-2-2.2l.09-23.15a2.22,2.22,0,0,1,2.46-2.19l239.22,27a2.22,2.22,0,0,1,2,2.21l-.09,23.14a2.21,2.21,0,0,1-2.21,2.2Zm-237-31.17,234.8,26.49.07-18.7-234.8-26.49Z" transform="translate(-333.25 -335)"/><path d="M1228.06,1350.19h-.25l-192.49-21.72a2.21,2.21,0,0,1-2-2.2l.08-22.24a2.21,2.21,0,0,1,2.45-2.19l192.5,21.72a2.21,2.21,0,0,1,2,2.2l-.08,22.24a2.18,2.18,0,0,1-.74,1.64A2.23,2.23,0,0,1,1228.06,1350.19Zm-190.28-25.9,188.08,21.22.07-17.79-188.08-21.22Z" transform="translate(-333.25 -335)"/><path d="M1357.54,1403.43h-.25L1042.94,1368a2.2,2.2,0,0,1-2-2.2l.09-23.15a2.19,2.19,0,0,1,2.45-2.18l314.35,35.46a2.22,2.22,0,0,1,2,2.21l-.09,23.14a2.18,2.18,0,0,1-.74,1.64A2.15,2.15,0,0,1,1357.54,1403.43Zm-312.14-39.64,309.94,35,.06-18.7-309.93-35Z" transform="translate(-333.25 -335)"/><path d="M1361.26,1442H1361l-180.47-20.36a2.21,2.21,0,0,1-2-2.21l.08-23.14a2.18,2.18,0,0,1,.74-1.64,2.21,2.21,0,0,1,1.72-.55l180.47,20.36a2.22,2.22,0,0,1,2,2.21l-.09,23.14a2.21,2.21,0,0,1-2.21,2.2ZM1183,1417.49l176,19.86.08-18.7-176.06-19.86Z" transform="translate(-333.25 -335)"/><path d="M1295.17,1510.93h-.25L1087,1487.47a2.22,2.22,0,0,1-2-2.21l.09-23.14a2.21,2.21,0,0,1,2.45-2.19l207.88,23.45a2.22,2.22,0,0,1,2,2.21l-.08,23.14a2.29,2.29,0,0,1-.74,1.65A2.22,2.22,0,0,1,1295.17,1510.93Zm-205.66-27.63,203.46,23,.07-18.7-203.46-23Z" transform="translate(-333.25 -335)"/><path d="M1401.76,1481.76h-.25l-173.09-19.53a2.21,2.21,0,0,1-2-2.21l.08-23.14a2.18,2.18,0,0,1,.74-1.64,2.22,2.22,0,0,1,1.72-.55l173.09,19.53a2.22,2.22,0,0,1,2,2.2l-.09,23.15a2.19,2.19,0,0,1-.74,1.64A2.23,2.23,0,0,1,1401.76,1481.76Zm-170.88-23.71,168.68,19,.07-18.7-168.68-19Z" transform="translate(-333.25 -335)"/><path d="M1335.65,1553.68h-.25l-163.78-18.48a2.22,2.22,0,0,1-2-2.2l.09-23.15a2.21,2.21,0,0,1,2.45-2.19L1336,1526.13a2.22,2.22,0,0,1,2,2.2l-.09,23.15a2.21,2.21,0,0,1-2.2,2.2ZM1174.09,1531l159.36,18,.07-18.7-159.36-18Z" transform="translate(-333.25 -335)"/><path class="cls-1" d="M1052.76,1077c25.38,5.26,42.49,26.71,38.9,48.78-3.61,22.29-27,37.27-53,33.93L551.45,1097c-37.83-4.87-65.73-34.87-62.93-67.68,1.47-17.29,11.42-32.86,27.32-42.79s36.27-13.28,55.95-9.2Z" transform="translate(-333.25 -335)"/><path d="M1046,1162.42a59.31,59.31,0,0,1-7.59-.49l-487.25-62.76c-39.28-5.05-67.77-35.83-64.85-70.06,1.53-18,11.87-34.18,28.35-44.48S552,971,572.24,975.15l481,99.71c26.57,5.51,44.42,28.05,40.65,51.31C1090.38,1147.52,1070.07,1162.42,1046,1162.42ZM555.28,977.82A72.39,72.39,0,0,0,517,988.38c-15.29,9.55-24.88,24.54-26.29,41.11-2.72,31.86,24.08,60.55,61,65.3L1039,1157.55c24.86,3.2,47.07-10.89,50.51-32.09,3.39-20.92-12.94-41.25-37.18-46.27l-481-99.72A78.89,78.89,0,0,0,555.28,977.82Z" transform="translate(-333.25 -335)"/><path class="cls-1" d="M689.67,1601a109.68,109.68,0,1,1-218.51,15.58l4.51-570a77.61,77.61,0,0,1,154.63-11Z" transform="translate(-333.25 -335)"/><path d="M580.9,1726.28A111.88,111.88,0,0,1,469,1616.61l4.51-570.08a79.83,79.83,0,0,1,159-11.28l59.36,565.49A111.92,111.92,0,0,1,589.36,1726Q585.13,1726.28,580.9,1726.28ZM553.38,969.57c-1.94,0-3.9.07-5.87.23a75.45,75.45,0,0,0-69.63,76.7l-4.51,570.09a107.47,107.47,0,1,0,214.11-15.33v0l-59.36-565.48A75.28,75.28,0,0,0,553.38,969.57Z" transform="translate(-333.25 -335)"/><ellipse cx="577.02" cy="1608.09" rx="66" ry="65.99" transform="translate(-1451.36 1486.32) rotate(-77.43)"/><ellipse cx="553.94" cy="1043.51" rx="44.21" ry="44.2" transform="translate(-919.93 1016.35) rotate(-77.14)"/><path d="M579.41,1701.05a89.27,89.27,0,0,1-19.41-2.14,90.34,90.34,0,0,1-20.21-7.11,2.21,2.21,0,1,1,2-4,85.32,85.32,0,0,0,112.94-36.26,2.21,2.21,0,1,1,3.9,2.08A89.9,89.9,0,0,1,579.41,1701.05Z" transform="translate(-333.25 -335)"/><path d="M664.63,1631.75a1.46,1.46,0,0,1-.29,0,2.21,2.21,0,0,1-1.9-2.48,85,85,0,0,0-6.05-44.33,2.21,2.21,0,0,1,4.07-1.73,89.42,89.42,0,0,1,6.36,46.64A2.22,2.22,0,0,1,664.63,1631.75Z" transform="translate(-333.25 -335)"/><path d="M581.67,1097.21a2.21,2.21,0,0,1-1-4.15,56.32,56.32,0,0,0,25.62-28.79,2.21,2.21,0,0,1,4.11,1.63,60.74,60.74,0,0,1-27.63,31A2.25,2.25,0,0,1,581.67,1097.21Z" transform="translate(-333.25 -335)"/><path d="M609.57,1027.68a2.21,2.21,0,0,1-2.1-1.52,56.28,56.28,0,0,0-85.4-29,2.21,2.21,0,1,1-2.5-3.64,60.69,60.69,0,0,1,92.1,31.3,2.2,2.2,0,0,1-1.42,2.78A2,2,0,0,1,609.57,1027.68Z" transform="translate(-333.25 -335)"/><polygon points="805.98 1074.74 895.49 1026.68 920.68 1052.54 955.3 1117.05 963.5 1153.4 873.98 1201.47 805.98 1074.74"/><path d="M1207.23,1538.67a2.35,2.35,0,0,1-.64-.09,2.21,2.21,0,0,1-1.31-1.07l-68-126.72a2.21,2.21,0,0,1,.9-3l89.52-48.06a2.21,2.21,0,0,1,2.63.4l25.18,25.86a2,2,0,0,1,.36.5l34.62,64.51a1.9,1.9,0,0,1,.21.56l8.2,36.35a2.2,2.2,0,0,1-1.11,2.43l-89.51,48.06A2.18,2.18,0,0,1,1207.23,1538.67Zm-65-128,65.91,122.83,86.1-46.23-7.77-34.42-34.33-64-23.81-24.44Z" transform="translate(-333.25 -335)"/><path d="M1551.31,976.12c-125.88,67.58-173.15,224.43-105.58,350.33s224.38,173.19,350.25,105.61,173.15-224.43,105.58-350.33S1677.18,908.54,1551.31,976.12Zm329.89,116.54c61.53,114.65,18.48,257.49-96.15,319s-257.43,18.49-319-96.17-18.48-257.49,96.15-319S1819.67,978,1881.2,1092.66Z" transform="translate(-333.25 -335)"/><path d="M1136.93,1523.5a24.42,24.42,0,0,1-33.08-10l-2.64-4.93a24.43,24.43,0,0,1,10-33.09l309.71-166.28,25.76,48Z" transform="translate(-333.25 -335)"/><path class="cls-1" d="M1267.34,1412.74a2.21,2.21,0,0,1-1-4.15l25.9-13.91a2.21,2.21,0,0,1,2.09,3.89l-25.9,13.91A2.17,2.17,0,0,1,1267.34,1412.74Z" transform="translate(-333.25 -335)"/><path d="M1366,1402.21l-25.81-48.09a13.57,13.57,0,0,1,5.53-18.35l17-9.14a13.56,13.56,0,0,1,18.35,5.53l25.8,48.09a13.55,13.55,0,0,1-5.53,18.35l-17,9.14A13.55,13.55,0,0,1,1366,1402.21Z" transform="translate(-333.25 -335)"/><path class="cls-1" d="M1377.93,1411.57a16,16,0,0,1-4.57-.68,15.66,15.66,0,0,1-9.33-7.64h0l-25.81-48.09a15.76,15.76,0,0,1,6.43-21.33l17-9.15a15.75,15.75,0,0,1,21.33,6.44l25.81,48.09a15.77,15.77,0,0,1-6.43,21.33l-17,9.14A15.66,15.66,0,0,1,1377.93,1411.57Zm-10-10.4a11.33,11.33,0,0,0,15.35,4.62l17-9.14a11.36,11.36,0,0,0,4.63-15.36l-25.81-48.09a11.33,11.33,0,0,0-15.35-4.62l-17,9.14a11.35,11.35,0,0,0-4.63,15.36Z" transform="translate(-333.25 -335)"/><path d="M1857.29,1107.38a2.21,2.21,0,0,1-2-1.16,206.12,206.12,0,0,0-37.19-49.68,2.21,2.21,0,0,1,3.1-3.15,210.62,210.62,0,0,1,38,50.74,2.2,2.2,0,0,1-.9,3A2.17,2.17,0,0,1,1857.29,1107.38Z" transform="translate(-333.25 -335)"/><path d="M1576.36,1390.55a2.13,2.13,0,0,1-1-.26,209.64,209.64,0,0,1-87.43-86.8c-55-102.4-16.37-230.42,86-285.39a210.76,210.76,0,0,1,230.21,20.19,2.21,2.21,0,0,1-2.74,3.47A206.32,206.32,0,0,0,1576,1022c-100.23,53.81-138,179.16-84.21,279.41a205.24,205.24,0,0,0,85.6,85,2.21,2.21,0,0,1-1,4.17Z" transform="translate(-333.25 -335)"/><path d="M1000.49,1123.31a46.88,46.88,0,0,1,19.75-65.11,51.81,51.81,0,0,1,70.57,25.28l142.61,320.41-57,28.56Z" transform="translate(-333.25 -335)"/><path d="M1176.41,1434.66a2.21,2.21,0,0,1-1.92-1.12L998.57,1124.4a49.1,49.1,0,0,1,20.68-68.18,54,54,0,0,1,73.58,26.36L1235.44,1403a2.21,2.21,0,0,1-1,2.87l-57,28.55A2.22,2.22,0,0,1,1176.41,1434.66Zm-174-312.45,174.88,307.33,53.25-26.68L1088.8,1084.37a49.64,49.64,0,0,0-67.58-24.2,44.67,44.67,0,0,0-18.81,62Z" transform="translate(-333.25 -335)"/><path class="cls-1" d="M998.35,1129.73a46.88,46.88,0,0,1,19.75-65.11,51.85,51.85,0,0,1,70.58,25.28l142.6,320.42-57,28.56Z" transform="translate(-333.25 -335)"/><path d="M1174.27,1441.08a2.21,2.21,0,0,1-1.92-1.11L996.43,1130.83a49.1,49.1,0,0,1,20.68-68.18,54,54,0,0,1,73.58,26.36l142.61,320.41a2.22,2.22,0,0,1-1,2.88l-57,28.55A2.21,2.21,0,0,1,1174.27,1441.08Zm-174-312.44L1175.15,1436l53.25-26.67L1086.66,1090.8a49.63,49.63,0,0,0-67.57-24.2,44.68,44.68,0,0,0-18.82,62Z" transform="translate(-333.25 -335)"/><polygon class="cls-1" points="805.53 1071.69 896.38 1026.18 901.9 1061.43 933.66 1124.87 960.76 1154.79 869.92 1200.29 845.18 1175.11 810.16 1105.14 805.53 1071.69"/><path d="M1203.17,1537.5a2.2,2.2,0,0,1-1.58-.67l-24.73-25.18a2,2,0,0,1-.4-.56l-35-70a2.4,2.4,0,0,1-.21-.69L1136.6,1407a2.21,2.21,0,0,1,1.2-2.28l90.84-45.5a2.21,2.21,0,0,1,3.17,1.63l5.47,34.91,31.47,62.86,26.9,29.69a2.22,2.22,0,0,1-.65,3.46l-90.84,45.5A2.19,2.19,0,0,1,1203.17,1537.5Zm-22.92-28.69,23.37,23.78,86.81-43.48-25.16-27.76a2.45,2.45,0,0,1-.34-.5l-31.75-63.43a2.4,2.4,0,0,1-.21-.64l-5-32.27L1141.19,1408l4.35,31.53Z" transform="translate(-333.25 -335)"/><ellipse cx="1044.4" cy="1110.74" rx="18.94" ry="18.94" transform="translate(-334.85 -333.49) rotate(-0.08)"/><path d="M1251.51,1482.21l-41.08,20.58Z" transform="translate(-333.25 -335)"/><path d="M1210.43,1505a2.21,2.21,0,0,1-1-4.18l41.08-20.58a2.21,2.21,0,1,1,2,4l-41.09,20.58A2.14,2.14,0,0,1,1210.43,1505Z" transform="translate(-333.25 -335)"/><path d="M1212.73,1407.44,1171.64,1428Z" transform="translate(-333.25 -335)"/><path d="M1171.64,1430.23a2.21,2.21,0,0,1-1-4.19l41.09-20.57a2.21,2.21,0,0,1,2,4L1172.63,1430A2.19,2.19,0,0,1,1171.64,1430.23Z" transform="translate(-333.25 -335)"/><path d="M1044.42,1143.64a32.74,32.74,0,0,1-10.4-1.7,33.24,33.24,0,0,1-6.94-3.24,2.21,2.21,0,0,1,2.32-3.76,28.63,28.63,0,0,0,6,2.81,28.18,28.18,0,0,0,18.6-.21,2.2,2.2,0,1,1,1.49,4.15A32.63,32.63,0,0,1,1044.42,1143.64Z" transform="translate(-333.25 -335)"/><path d="M1014.13,1117.93a2.21,2.21,0,0,1-2.18-1.84,32.92,32.92,0,0,1,29.21-38.09,2.21,2.21,0,0,1,.44,4.4,28.49,28.49,0,0,0-25.29,33,2.2,2.2,0,0,1-1.82,2.53Z" transform="translate(-333.25 -335)"/><path class="cls-1" d="M1361.63,960.45c-6.49-21.43-5.39-35,.5-49.05l9.92-19.74-29.83-12-9.14,22.47a63.26,63.26,0,0,1-12.57,19.55l-4.93,5.23Z" transform="translate(-333.25 -335)"/><path d="M1361.64,962.66a2.24,2.24,0,0,1-1.31-.42l-46-33.52a2.21,2.21,0,0,1-.31-3.3l4.93-5.22A60.69,60.69,0,0,0,1331,901.33l9.15-22.47a2.2,2.2,0,0,1,2.86-1.22l29.84,12a2.21,2.21,0,0,1,1.15,3l-9.92,19.74c-5.1,12.21-7.15,25-.36,47.42a2.22,2.22,0,0,1-2.11,2.85Zm-42.73-36,38.89,28.3c-4.39-17.3-3.65-30.17,2.3-44.38l8.9-17.73-25.56-10.26L1335.12,903a65.24,65.24,0,0,1-13,20.24Z" transform="translate(-333.25 -335)"/><path d="M1329.08,916a3.27,3.27,0,0,0-5.48-1.11c-4.72,5-13,13.42-19.25,17.75a14,14,0,0,0-4.36,18.08c9.37,17.64,33,55.93,58,85.14,1.71,2,6,4.68,12.08,1.93,20.53-9.24,1-51-10.13-94.42a4.52,4.52,0,0,0-3.55-3.34l-6.2-1.14C1338.75,936.58,1333.94,931.18,1329.08,916Z" transform="translate(-333.25 -335)"/><path class="cls-1" d="M1305.76,931.65l-1.41,1a14,14,0,0,0-4.36,18.08c9.37,17.64,33,55.93,58,85.14,1.71,2,6,4.68,12.08,1.93a29.63,29.63,0,0,0,4.7-3.15l-1.68-2.13a788.29,788.29,0,0,1-64.75-96.27Z" transform="translate(-333.25 -335)"/><path d="M1365,1041.13a11.43,11.43,0,0,1-8.69-3.86c-25-29.2-48.54-67.16-58.3-85.55a16.2,16.2,0,0,1,5.06-20.92l1.42-1a2.17,2.17,0,0,1,1.73-.33,2.22,2.22,0,0,1,1.42,1.06l2.6,4.56a790.31,790.31,0,0,0,64.57,96l1.68,2.14a2.2,2.2,0,0,1-.34,3.08,30,30,0,0,1-5.19,3.44A14.51,14.51,0,0,1,1365,1041.13Zm-60-106.28a11.79,11.79,0,0,0-3.1,14.8c9.67,18.22,33,55.82,57.75,84.75.58.67,3.75,3.92,9.49,1.34a16.79,16.79,0,0,0,2.48-1.53l-.29-.37a793.76,793.76,0,0,1-64.93-96.53Z" transform="translate(-333.25 -335)"/><path class="cls-1" d="M1368.47,978a2.31,2.31,0,0,1-.37,0l-20.57-3.45a2.21,2.21,0,0,1,.73-4.35l20.57,3.45a2.21,2.21,0,0,1-.36,4.38Z" transform="translate(-333.25 -335)"/><path class="cls-1" d="M1371.8,989.75l-.33,0-16.8-2.5a2.2,2.2,0,1,1,.64-4.36l16.81,2.49a2.21,2.21,0,0,1-.32,4.39Z" transform="translate(-333.25 -335)"/><path class="cls-1" d="M1193.55,649.28s207-45.41,270.16-9.46c9.51,5.41,18.52,16.76,20.51,27.52,6.06,32.76-12.18,104.15-111.94,238.34a5.3,5.3,0,0,1-6.12,1.8l-31.65-12a5.28,5.28,0,0,1-3.2-6.39l42.25-147.88a5.6,5.6,0,0,0-6.06-7.09l-197.32,24.25Z" transform="translate(-333.25 -335)"/><path d="M1368,910a7.33,7.33,0,0,1-2.64-.48l-31.65-12a7.54,7.54,0,0,1-4.55-9.06l42.25-147.89a3.38,3.38,0,0,0-3.66-4.29l-197.32,24.25a2.21,2.21,0,0,1-2.43-2.65l23.37-109.09a2.2,2.2,0,0,1,1.68-1.69c8.49-1.86,208.61-45.17,271.73-9.22,10.51,6,19.59,18.2,21.59,29,4.92,26.6-3.13,93.15-112.33,240.06A7.55,7.55,0,0,1,1368,910Zm.17-178.16a7.8,7.8,0,0,1,7.49,9.94l-42.25,147.89a3.1,3.1,0,0,0,1.87,3.72l31.64,12a3.08,3.08,0,0,0,3.57-1c108.21-145.56,116.33-210.73,111.54-236.62-1.79-9.67-10-20.61-19.43-26-59-33.59-249,5.55-267.22,9.41L1173,755.79l194.24-23.87A7.73,7.73,0,0,1,1368.19,731.86Z" transform="translate(-333.25 -335)"/><path class="cls-1" d="M1254.69,1039.19l4.06,19.28c5.42,28.06-15.08,42.42-15.08,42.42l60.63,7.38s-13.24-8-10.54-47l3.47-32.61Z" transform="translate(-333.25 -335)"/><path d="M1304.3,1110.48l-.27,0-60.63-7.38a2.21,2.21,0,0,1-1-4c.79-.56,19.26-13.94,14.18-40.19l-4-19.24a2.22,2.22,0,0,1,1.63-2.6l42.53-10.56a2.21,2.21,0,0,1,2.73,2.37l-3.46,32.62c-2.54,36.62,9.4,44.84,9.52,44.92a2.23,2.23,0,0,1,.88,2.62A2.2,2.2,0,0,1,1304.3,1110.48Zm-55.52-11.19,50,6.08c-4-6-9-18.84-7.19-44.28l3.14-29.55-37.41,9.28,3.62,17.19C1265,1079.32,1254.72,1093.26,1248.78,1099.29Z" transform="translate(-333.25 -335)"/><path d="M1253.43,1074.94a288.42,288.42,0,0,0-21,27c-4.37,6.56-1.75,14.13,2.93,20.42,9.54,12.83,22.64,22.7,38,32.86,13.45,8.87,28.49,18.23,46.57,26.5,4.91,2.25,16,5.32,23.38,1.63,22.36-11.15-14.92-46.07-44.23-86.3a5,5,0,0,0-5-2l-6.86,1.37a17.3,17.3,0,0,1-17.75-7.33l-9.23-13.79A4.29,4.29,0,0,0,1253.43,1074.94Z" transform="translate(-333.25 -335)"/><path class="cls-1" d="M1236,1097.1s-3.26,4.35-3.6,4.86a14.57,14.57,0,0,0-2.09,5.52,20.22,20.22,0,0,0,5.48,17.44c1.07,1.12,2.53,2.55,4.23,4.16a279.46,279.46,0,0,0,58.68,42.66c10.81,5.9,34.8,18,44.61,11.63,3-2,4.88-8,4.88-8s-5.73,3.44-23-5.13c-29.14-14.49-48.87-30.74-72.93-50.18a71.59,71.59,0,0,1-11.37-11.5A23,23,0,0,1,1236,1097.1Z" transform="translate(-333.25 -335)"/><path d="M1336,1187.38c-8.79,0-21.63-4.58-38.33-13.7a282,282,0,0,1-59.15-43c-1.72-1.64-3.2-3.1-4.29-4.24a22.39,22.39,0,0,1-6.06-19.35,16.71,16.71,0,0,1,2.42-6.35c.36-.54,3.13-4.23,3.68-5a2.22,2.22,0,0,1,2.33-.81,2.19,2.19,0,0,1,1.62,1.86,20.68,20.68,0,0,0,4.44,10.34,69.67,69.67,0,0,0,11,11.18l2.31,1.87c22.66,18.31,42.23,34.13,70.22,48,15.46,7.68,20.89,5.2,20.94,5.17a2.28,2.28,0,0,1,2.45.28,2.22,2.22,0,0,1,.72,2.31c-.22.69-2.2,6.86-5.79,9.21A15.4,15.4,0,0,1,1336,1187.38Zm-101-85.16c-.37.51-.63.86-.7,1a12.38,12.38,0,0,0-1.76,4.69,18,18,0,0,0,4.91,15.51c1,1.1,2.48,2.51,4.15,4.09a277.17,277.17,0,0,0,58.22,42.32c28.57,15.61,38.79,14,42.34,11.72a9,9,0,0,0,2.52-3.29c-3.93.1-10.34-1-20.39-6-28.42-14.13-48.16-30.09-71-48.57l-2.32-1.87a74.53,74.53,0,0,1-11.7-11.83A25.05,25.05,0,0,1,1235,1102.22Z" transform="translate(-333.25 -335)"/><path class="cls-1" d="M1293.62,1127.29a2.21,2.21,0,0,1-.46-4.37l22.62-4.88a2.2,2.2,0,1,1,.93,4.31l-22.62,4.89A2.42,2.42,0,0,1,1293.62,1127.29Z" transform="translate(-333.25 -335)"/><path class="cls-1" d="M1306.14,1137.44a2.21,2.21,0,0,1-.51-4.36l18.35-4.32a2.2,2.2,0,1,1,1,4.29l-18.35,4.33A2.22,2.22,0,0,1,1306.14,1137.44Z" transform="translate(-333.25 -335)"/><path class="cls-1" d="M1327.52,708.47c-60.33-51.59-254.46-53.21-254.46-53.21s-24.24,28.91-12.67,87.07c3.82,19.17,17.38,36.38,38.81,36.38l119.09,1a15.47,15.47,0,0,1,15.33,16.06c-2.22,57.57-4.2,176.59,12.26,257.7a8.89,8.89,0,0,0,6.39,6.78,146.37,146.37,0,0,0,38.67,5.18,10.2,10.2,0,0,0,9.93-8.86l39.5-294.94a89.9,89.9,0,0,0-.27-26.76C1338.51,725.43,1335,714.89,1327.52,708.47Z" transform="translate(-333.25 -335)"/><path d="M1289.43,1067.66a150.28,150.28,0,0,1-37.74-5.27,11,11,0,0,1-8-8.48c-16.27-80.17-14.7-196.19-12.31-258.21a13.26,13.26,0,0,0-13.13-13.77l-119.1-1c-24.62,0-37.45-20.56-41-38.16-11.64-58.52,12.13-87.71,13.15-88.92a2.47,2.47,0,0,1,1.71-.79c8,.06,195.63,2.22,255.87,53.74,6.72,5.75,11.2,15.07,13.33,27.72a92.07,92.07,0,0,1,.28,27.43l-39.5,294.93a12.48,12.48,0,0,1-12.09,10.78ZM1074.15,657.48c-3.62,5-21.76,33.33-11.59,84.41,3.17,16,14.68,34.61,36.64,34.61l119.11,1a17.66,17.66,0,0,1,17.51,18.36c-2.38,61.82-4,177.45,12.23,257.17a6.61,6.61,0,0,0,4.79,5.08,144.19,144.19,0,0,0,38.07,5.11,8,8,0,0,0,7.77-6.94l39.5-294.94a87.59,87.59,0,0,0-.26-26.11c-2-11.59-5.93-20-11.84-25.09C1269.39,661.67,1090,657.73,1074.15,657.48Z" transform="translate(-333.25 -335)"/><path class="cls-1" d="M1286.44,519l16,30.63c15.51,27.9,40.43,46.38,68,62.38l11.19,6.48a37.43,37.43,0,0,0,23.74,4.72l1.25-.16a51.61,51.61,0,0,1,35.78,8.41l-27.82,10.65a69,69,0,0,1-52.47-1.08c-15.93-7-51.83-15.58-68.76-35.3-35.48-41.31-34.09-50.49-34.09-50.49Z" transform="translate(-333.25 -335)"/><path d="M1389.51,649a70.31,70.31,0,0,1-28.29-6c-3.7-1.63-8.48-3.34-14-5.32-17.82-6.36-42.22-15.08-55.53-30.57-34.39-40-34.85-50.56-34.6-52.26a2.24,2.24,0,0,1,.42-1l27.19-36.25a2.2,2.2,0,0,1,3.72.31l16,30.63c16.29,29.3,43.1,47.53,67.18,61.49l11.19,6.48a35.36,35.36,0,0,0,22.34,4.44l1.25-.16a53.77,53.77,0,0,1,37.31,8.77,2.19,2.19,0,0,1,.95,2.08,2.21,2.21,0,0,1-1.4,1.81l-27.82,10.66A72.31,72.31,0,0,1,1389.51,649Zm-128-93.06c.37,2.11,3.65,13.55,33.53,48.35,12.54,14.6,36.31,23.09,53.67,29.28,5.61,2,10.46,3.74,14.31,5.43a66.34,66.34,0,0,0,50.79,1l23.64-9.06a49.44,49.44,0,0,0-30.52-5.76l-1.25.17a39.85,39.85,0,0,1-25.14-5l-11.18-6.48c-24.61-14.26-52-32.92-68.86-63.21l-14.37-27.58Z" transform="translate(-333.25 -335)"/><path d="M1205.54,666.92s2,4.14-51.82,11.92c-38.82,5.6-74.07,3.13-90.72,1.31a9,9,0,0,1-7.76-11.12c4.37-17.47,7.56-33.69,24.37-78,11.67-30.79-6.06-86.94,30.19-120.32,61.17-56.31,145.57,15.54,145.57,15.54l26.54,39a398.76,398.76,0,0,0-70.57,120.32Z" transform="translate(-333.25 -335)"/><path class="cls-1" d="M1182.87,559.61a2.21,2.21,0,0,1-2.19-2l-4.55-42.42a2.21,2.21,0,1,1,4.39-.47l4.55,42.42a2.21,2.21,0,0,1-2,2.43Z" transform="translate(-333.25 -335)"/><path class="cls-1" d="M1126.78,582.91a2.2,2.2,0,0,1-2-1.18c-9.91-18.92-22.43-68.48-22.69-79.08a2.2,2.2,0,0,1,2.15-2.26,2.15,2.15,0,0,1,2.26,2.15c.25,10,12.73,59.09,22.19,77.14a2.2,2.2,0,0,1-2,3.23Z" transform="translate(-333.25 -335)"/><path d="M1469.67,635.33l-143.78,11,79-142.79a18.37,18.37,0,0,1,14.74-9.41l116.68-8.89a9.17,9.17,0,0,1,9,13.42Z" transform="translate(-333.25 -335)"/><ellipse class="cls-1" cx="1441.44" cy="568.66" rx="12.6" ry="6.77" transform="translate(-382.24 657.63) rotate(-37.41)"/><path d="M1462.66,644.59l-225.53,17.19a8.47,8.47,0,0,1-9.08-7.8l-.38-1.27,242.41-18.47.38,1.26A8.47,8.47,0,0,1,1462.66,644.59Z" transform="translate(-333.25 -335)"/><path class="cls-1" d="M1347.57,618.59l-29.35-10.16a13.24,13.24,0,0,0-12.76,2.31L1291.84,622a13.15,13.15,0,0,1-9.29,3c-14.69-1-83.12-19.68-88.36-32.1a219.56,219.56,0,0,1-7.86-23l-53.08,18.55s.86,16.4,22.44,38.41c18.36,18.73,65.74,25,130.9,21.1,0,0,13.62-1.54,25-15.18,7.29-8.7,25.06-4.22,35.6-6.8A3.87,3.87,0,0,0,1347.57,618.59Z" transform="translate(-333.25 -335)"/><path d="M1252.07,651.29c-49.62,0-83.16-7.77-98-22.86-21.91-22.35-23-39.14-23.07-39.84a2.2,2.2,0,0,1,1.48-2.2l53.08-18.56a2.22,2.22,0,0,1,2.86,1.5,217.51,217.51,0,0,0,7.76,22.7c4.51,10.69,71.11,29.74,86.48,30.76a10.93,10.93,0,0,0,7.74-2.49L1304.06,609a15.52,15.52,0,0,1,14.88-2.69l29.36,10.16a6.07,6.07,0,0,1-.54,11.63c-3.94,1-8.56,1-13.45,1.05-8.31.07-16.9.15-21,5-11.85,14.15-25.89,15.89-26.48,15.95Q1268.33,651.29,1252.07,651.29ZM1135.69,590c.87,4.53,4.75,18.21,21.57,35.37,17.11,17.45,61.79,24.51,129.19,20.44,0,0,12.82-1.65,23.48-14.38,5.4-6.45,15-6.53,24.34-6.62,4.63,0,9-.07,12.43-.92a1.65,1.65,0,0,0,.15-3.17l-29.36-10.16a11.08,11.08,0,0,0-10.62,1.92l-13.62,11.27a15.37,15.37,0,0,1-10.84,3.49c-13.61-.9-84.29-19.3-90.26-33.45a212.12,212.12,0,0,1-7.3-21Z" transform="translate(-333.25 -335)"/><path d="M1248,482.31c36.25,19.42,50.92,47.91,69.91,73.37-13.38,12.08-29.35,28.48-39.71,40.13-9.75-7.51-22.09-15.11-31.07-25.89Z" transform="translate(-333.25 -335)"/><path class="cls-1" d="M1203,411.73l-.07,39.7a12.62,12.62,0,0,0,8.54,11.36L1219,466c1.94.84-5.06,11.42-36.15,6.65a79.31,79.31,0,0,1-33.26-13.36l-7.28-5.07c5-.74,18.85-4.42,20.12-9.35l11.47-51.69Z" transform="translate(-333.25 -335)"/><path d="M1197.35,476.1a99.25,99.25,0,0,1-14.84-1.22,82.06,82.06,0,0,1-34.18-13.74l-7.28-5.06a2.21,2.21,0,0,1,.94-4c6.7-1,17.56-4.84,18.3-7.72l11.45-51.62a2.24,2.24,0,0,1,1.31-1.56,2.18,2.18,0,0,1,2,.18l29.07,18.51a2.19,2.19,0,0,1,1,1.86l-.07,39.7a10.34,10.34,0,0,0,7.05,9.27l7.72,3.31a2.83,2.83,0,0,1,1.49,3.51C1220.26,471.37,1212.81,476.1,1197.35,476.1Zm-49.63-20.76,3.13,2.18a77.59,77.59,0,0,0,32.33,13c21.28,3.26,30.43-1,33.1-3.24l-5.72-2.45a14.69,14.69,0,0,1-9.88-13.29l.07-38.59-25.38-16.16-10.78,48.61C1163.25,450.57,1153.78,453.79,1147.72,455.34Z" transform="translate(-333.25 -335)"/><path d="M1255.87,367c-8.6-6.48-3.51,10.22-30.15-21.48-10.61-12.62-14.23,7.2-17,3.93-10.2-12.07-9.84-11.67-17.09-14.15-4.8-1.65-12.5,4.11-15.49,10.24-4,8.1.89,14.1-4.18,33.4-3.55,13.55-9,19.62-5.63,24.17s10.69.81,14.76,5.55c5.27,6.14-3.52,16.51-.32,25.37,2,5.58,10.37,13.12,30,15.78a6.74,6.74,0,0,0,7.28-4.54c1.31-3.93,2.93-8.89,4.09-13.77,5.51-23.23,1.7-31.85,7.32-35.07,8.63-4.93,19.77,8.61,26.14,4.08C1262.27,395.8,1267.66,375.85,1255.87,367Z" transform="translate(-333.25 -335)"/><path class="cls-1" d="M1207,372.69l-.63,6.49a66.57,66.57,0,0,1-1.53,9.07c-1.35,5.6-3.59,15.25-4.43,20.74-1.24,8.08,23.44,13.64,23.44,13.64l3.73-3,2.91.59a3.27,3.27,0,0,0,1.7-.06,3.19,3.19,0,0,0,2.19-3.05c0-7.31.41-23.37,4.65-35.24A34.55,34.55,0,0,0,1207,372.69Z" transform="translate(-333.25 -335)"/><path d="M1223.85,424.84a2,2,0,0,1-.48-.06c-4.46-1-26.62-6.5-25.14-16.12.86-5.64,3.17-15.53,4.46-20.93a64.75,64.75,0,0,0,1.48-8.77l.64-6.48a2.21,2.21,0,0,1,1.73-2,36.49,36.49,0,0,1,34.14,9.85,2.2,2.2,0,0,1,.43,2.21c-4.19,11.73-4.55,28-4.52,34.49a5.37,5.37,0,0,1-3.7,5.15,5.54,5.54,0,0,1-2.84.14l-1.89-.38-2.92,2.36A2.22,2.22,0,0,1,1223.85,424.84ZM1209,374.55l-.48,4.84a68.88,68.88,0,0,1-1.57,9.37c-1.28,5.33-3.56,15.09-4.4,20.57-.58,3.79,11.34,8.64,20.71,10.9l2.89-2.33a2.19,2.19,0,0,1,1.83-.45l2.91.59a1,1,0,0,0,.55,0,1,1,0,0,0,.7-.93c0-8,.47-22.92,4.32-34.67A32.19,32.19,0,0,0,1209,374.55Z" transform="translate(-333.25 -335)"/><path class="cls-1" d="M1199.46,391.78s1.55-15.59-5.69-14.74S1185.26,395.09,1199.46,391.78Z" transform="translate(-333.25 -335)"/><path d="M1751.49,1169.94c13.2-3.42,26.52-3.11,40.07,4.11,10.82,9.78,6.93,20.59-1.62,19.8-13.55-9.83-26.74-10.75-39.67-5.44Z" transform="translate(-333.25 -335)"/><path d="M1749.86,1266.15c13.21-3.42,26.53-3.11,40.08,4.11,10.82,9.78,6.92,20.59-1.63,19.8-13.55-9.82-26.73-10.74-39.67-5.43Z" transform="translate(-333.25 -335)"/><path d="M1607.33,1141.38c-10.45-8.77-22.61-14.22-37.94-13.53-14,4.18-15.12,15.61-7.06,18.58,16.46-3,28.76,1.8,38.16,12.15Z" transform="translate(-333.25 -335)"/><path d="M1567.42,1228.94c-10.45-8.76-22.61-14.22-38-13.53-14,4.18-15.11,15.61-7,18.58,16.46-3,28.76,1.8,38.15,12.15Z" transform="translate(-333.25 -335)"/><path d="M1754.75,1243.14c-19.83,87.76-76,149.83-125.51,138.64s-73.52-91.39-53.69-179.14,73.76-120.15,123.24-109S1774.59,1155.39,1754.75,1243.14Z" transform="translate(-333.25 -335)"/><path d="M1754.75,1243.14c-19.83,87.76-76,149.83-125.51,138.64s-73.52-91.39-53.69-179.14,73.76-120.15,123.24-109S1774.59,1155.39,1754.75,1243.14Z" transform="translate(-333.25 -335)"/><path class="cls-1" d="M1608.76,1132.15c30.19-10.9,60.7-12.75,91.63-2.66-33.14,87.48-51,206.75-108.08,244.4a6.37,6.37,0,0,1-9.82-4C1565.87,1285.9,1567.61,1205.32,1608.76,1132.15Z" transform="translate(-333.25 -335)"/><path d="M1588.7,1377.19a8.62,8.62,0,0,1-3.34-.67,8.41,8.41,0,0,1-5-6.15c-19.19-97-10.77-173,26.5-239.31a2.23,2.23,0,0,1,1.17-1c31.92-11.52,63.23-12.42,93.08-2.68a2.23,2.23,0,0,1,1.31,1.14,2.28,2.28,0,0,1,.07,1.74c-9.26,24.44-17.47,51.87-25.42,78.4-20.54,68.59-41.78,139.52-83.51,167.06A8.71,8.71,0,0,1,1588.7,1377.19ZM1610.28,1134c-36.38,65.13-44.52,140-25.62,235.56a3.94,3.94,0,0,0,2.4,2.93,4.34,4.34,0,0,0,4-.39c40.39-26.66,61.4-96.81,81.71-164.65,7.73-25.81,15.72-52.48,24.7-76.51C1669.17,1122.15,1640.6,1123.16,1610.28,1134Z" transform="translate(-333.25 -335)"/><path class="cls-1" d="M1748.67,1160c-23.54-21.83-50.9-35.46-83.31-38.26-3.69,93.48-33.84,210.26,4,267.21a6.37,6.37,0,0,0,10.58.2C1728.06,1318.32,1758,1243.47,1748.67,1160Z" transform="translate(-333.25 -335)"/><path d="M1674.75,1394.12h0a8.73,8.73,0,0,1-7.22-3.92c-27.65-41.66-19.48-115.25-11.58-186.41,3-27.52,6.21-56,7.24-82.1a2.22,2.22,0,0,1,2.4-2.12c31.28,2.71,59.75,15.77,84.62,38.84a2.25,2.25,0,0,1,.7,1.38c8.4,75.57-13.57,148.85-69.13,230.63A8.45,8.45,0,0,1,1674.75,1394.12Zm-7.28-269.93c-1.13,25.63-4.2,53.3-7.17,80.08-7.82,70.39-15.9,143.16,10.87,183.49a4.3,4.3,0,0,0,3.56,1.94h0a4,4,0,0,0,3.33-1.76c54.74-80.57,76.52-152.67,68.49-226.84C1722.86,1139.31,1697,1127.22,1667.47,1124.19Z" transform="translate(-333.25 -335)"/><path class="cls-1" d="M1757.42,1159.27c-19.89-12.46-41-20.2-63.51-22.18-26.46-12.57-54.4-15.42-83.48-10.7-53.93,64.33-70.49,143.21-69.65,228.88a6.37,6.37,0,0,0,8.93,5.69c51.13-21.49,86.82-100.56,124.49-172.29,7.08,81.64,8.82,170.16,48.12,210.35a6.38,6.38,0,0,0,10.44-1.79C1766.79,1318.61,1782.15,1239.49,1757.42,1159.27Z" transform="translate(-333.25 -335)"/><path d="M1727,1403.2a8.74,8.74,0,0,1-6.25-2.64c-35-35.75-40.71-109.57-46.26-181-.61-7.73-1.21-15.47-1.85-23.17q-4.59,8.85-9.18,17.75c-32.84,63.64-66.79,129.45-112.89,148.83a8.71,8.71,0,0,1-8.18-.74,8.45,8.45,0,0,1-3.81-7c-1-98.87,21.32-172,70.17-230.32a2.25,2.25,0,0,1,1.34-.76c30.45-4.94,58.86-1.34,84.41,10.71,21.91,2,43.47,9.56,64.1,22.48a2.16,2.16,0,0,1,.94,1.22c22.4,72.66,14.53,148.76-24.75,239.49a8.46,8.46,0,0,1-6.21,5A9.37,9.37,0,0,1,1727,1403.2Zm-52.8-216.73a2.18,2.18,0,0,1,2.2,2c.89,10.19,1.69,20.48,2.49,30.77,5.5,70.61,11.18,143.62,45,178.22a4.31,4.31,0,0,0,3.87,1.24,4,4,0,0,0,3-2.36c38.69-89.38,46.59-164.28,24.82-235.64-19.94-12.36-40.74-19.57-61.84-21.43a2.2,2.2,0,0,1-.75-.2c-25-11.85-51.57-15.33-81.37-10.64-47.76,57.31-69.56,129.41-68.6,226.81a4,4,0,0,0,1.82,3.32,4.3,4.3,0,0,0,4,.36c44.62-18.76,78.2-83.84,110.67-146.78,4.23-8.2,8.46-16.4,12.72-24.5A2.21,2.21,0,0,1,1674.19,1186.47Z" transform="translate(-333.25 -335)"/><path d="M1759.93,1167.06c-5.78-41.3-28.37-66-61.14-73.39-33.48-7.57-69,4.86-94.59,40.84C1650.83,1118.7,1727.49,1145,1759.93,1167.06Z" transform="translate(-333.25 -335)"/><path d="M1683.73,1095a2.09,2.09,0,0,1-.94-.22,2.2,2.2,0,0,1-1.06-2.93c6.55-13.89,10-36,2.79-54-4.14-10.38-11.1-17.55-20.69-21.3-10.92-4.27-24.27-1.36-31,6.76-3.42,4.09-4.76,10.25-3.26,15a10.19,10.19,0,0,0,7.44,7,2.21,2.21,0,1,1-1.15,4.26,14.59,14.59,0,0,1-10.5-9.94c-2-6.18-.32-13.88,4.08-19.14,8.07-9.67,23.22-13,36-8,10.63,4.15,18.64,12.37,23.18,23.78,7.66,19.23,4.06,42.72-2.89,57.47A2.21,2.21,0,0,1,1683.73,1095Z" transform="translate(-333.25 -335)"/><path d="M1711.17,1119.25a2,2,0,0,1-.49,0,2.22,2.22,0,0,1-1.66-2.65,204.64,204.64,0,0,1,17-48c13.61-27.15,29.59-38,48.88-33.07,9.39,2.39,15.69,8.3,17.76,16.66a26.59,26.59,0,0,1-8,25.46c-6.27,5.64-14.32,7.08-22.66,4.06a2.21,2.21,0,0,1,1.51-4.15c6.73,2.44,13.19,1.31,18.2-3.19a22.39,22.39,0,0,0,6.61-21.12c-1.65-6.7-6.82-11.47-14.56-13.44-17-4.29-31.3,5.76-43.84,30.77a200.77,200.77,0,0,0-16.63,47A2.2,2.2,0,0,1,1711.17,1119.25Z" transform="translate(-333.25 -335)"/></g></g></svg>