<svg width="17" height="17" viewBox="0 0 17 17" fill="none" xmlns="http://www.w3.org/2000/svg">
<rect x="0.578125" y="0.929749" width="16" height="16" rx="2" fill="#031223"/>
<path d="M8.96547 11.1748C8.96547 12.4519 8.15701 13.5416 7.04391 13.7525V13.6353C7.81722 13.4479 8.19216 12.7214 8.19216 11.6669V3.12535H7.19623V3.03162H9.9614V3.12535H8.96547V11.1748Z" fill="white"/>
<path d="M9.31326 10.4886V11.5514C9.81991 12.0628 10.035 12.539 10.035 13.1657C10.035 14.0319 9.48482 14.7225 8.37282 14.7225C7.24911 14.7225 6.64044 14.3363 6.59362 12.6975H6.47656V14.7108H6.5585C6.64044 14.6757 6.74578 14.6523 6.87454 14.6523C6.99136 14.6523 7.12542 14.6782 7.29063 14.71C7.55583 14.7612 7.90129 14.8279 8.38452 14.8279C9.73063 14.8279 10.6788 14.0904 10.6788 12.7912C10.6788 11.8675 10.1793 11.1935 9.31326 10.4886Z" fill="white"/>
<path d="M7.84168 10.3529C7.03287 9.67627 6.5585 9.02497 6.5585 8.13246C6.5585 6.91511 7.49492 6.2245 8.80591 6.2245C9.20947 6.2245 9.49309 6.27827 9.72315 6.32188C9.88011 6.35164 10.0121 6.37667 10.1403 6.37667C10.2691 6.37667 10.351 6.37667 10.4447 6.34155H10.5266V8.15587H10.4095C10.3276 6.71612 9.97644 6.34155 8.81762 6.34155C7.6705 6.34155 7.20229 6.99705 7.20229 7.7813C7.20229 8.37813 7.39724 8.81805 7.84168 9.28288V10.3529Z" fill="white"/>
</svg>
