<svg width="103" height="92" viewBox="0 0 103 92" fill="none" xmlns="http://www.w3.org/2000/svg">
<path d="M53.3204 46.5082C53.3204 53.8023 48.703 60.0257 42.3457 61.2303V60.5611C46.7624 59.4904 48.9037 55.3414 48.9037 49.3188V0.535348H43.2157V0H59.0084V0.535348H53.3204V46.5082Z" fill="#031223"/>
<path d="M55.3067 42.5892V48.6589C58.2003 51.5801 59.4286 54.2996 59.4286 57.879C59.4286 62.826 56.2865 66.7703 49.9356 66.7703C43.5177 66.7703 40.0414 64.5642 39.774 55.2049H39.1055V66.7035H39.5734C40.0414 66.5029 40.6431 66.3692 41.3784 66.3692C42.0456 66.3692 42.8113 66.517 43.7548 66.699C45.2695 66.9913 47.2425 67.372 50.0024 67.372C57.6904 67.372 63.1055 63.1603 63.1055 55.7397C63.1055 50.4642 60.2528 46.6151 55.3067 42.5892Z" fill="#031223"/>
<path d="M46.9021 41.8141C42.2827 37.9496 39.5734 34.2298 39.5734 29.1324C39.5734 22.1798 44.9216 18.2355 52.4091 18.2355C54.7139 18.2355 56.3338 18.5426 57.6477 18.7917C58.5441 18.9616 59.2982 19.1046 60.0303 19.1046C60.7656 19.1046 61.2336 19.1046 61.7684 18.904H62.2364V29.2662H61.5679C61.0999 21.0433 59.0943 18.904 52.4759 18.904C45.9244 18.904 43.2503 22.6478 43.2503 27.1269C43.2503 30.5355 44.3637 33.048 46.9021 35.7029V41.8141Z" fill="#031223"/>
<path d="M7.46567 77.539V84.9544C7.46567 85.9386 7.24478 86.7607 6.80299 87.4206C6.3612 88.086 5.72088 88.6201 4.88204 89.0227C4.04321 89.4254 3.02821 89.7274 1.83706 89.9287L1.60218 88.8382C2.47458 88.6928 3.24631 88.4747 3.91738 88.1839C4.58845 87.8931 5.11133 87.4933 5.48601 86.9844C5.86628 86.4811 6.05642 85.8352 6.05642 85.0466V78.6547H2.3823V77.539H7.46567ZM6.14869 73.4036C6.46186 73.4036 6.71351 73.4986 6.90365 73.6888C7.09378 73.8789 7.18885 74.111 7.18885 74.385C7.18885 74.6702 7.09378 74.9107 6.90365 75.1064C6.71351 75.2965 6.46186 75.3916 6.14869 75.3916C5.84671 75.3916 5.60345 75.2965 5.4189 75.1064C5.23436 74.9107 5.14208 74.6702 5.14208 74.385C5.14208 74.111 5.23436 73.8789 5.4189 73.6888C5.60345 73.4986 5.84671 73.4036 6.14869 73.4036ZM13.4065 85.399C14.0831 85.399 14.6172 85.2731 15.0087 85.0215C15.4057 84.7642 15.6042 84.4231 15.6042 83.9981C15.6042 83.7297 15.5539 83.4976 15.4533 83.3019C15.3582 83.1061 15.1597 82.93 14.8577 82.7734C14.5557 82.6168 14.0915 82.4602 13.4652 82.3036C12.8556 82.1526 12.3244 81.9793 11.8714 81.7836C11.424 81.5822 11.0745 81.3222 10.8229 81.0034C10.5768 80.6847 10.4538 80.2709 10.4538 79.762C10.4538 79.2642 10.5936 78.8364 10.8732 78.4785C11.1584 78.115 11.5527 77.8382 12.056 77.6481C12.5593 77.4524 13.1437 77.3545 13.8091 77.3545C14.5193 77.3545 15.1373 77.4496 15.663 77.6397C16.1942 77.8242 16.6444 78.0535 17.0135 78.3275L16.3928 79.2838C16.0572 79.0545 15.6881 78.8672 15.2855 78.7218C14.8828 78.5708 14.3963 78.4953 13.8259 78.4953C13.1325 78.4953 12.6403 78.6044 12.3495 78.8225C12.0588 79.035 11.9134 79.3118 11.9134 79.6529C11.9134 79.9102 11.9833 80.1255 12.1231 80.2988C12.2685 80.4666 12.5117 80.6204 12.8529 80.7602C13.194 80.8944 13.6637 81.0426 14.2621 81.2048C14.8381 81.3558 15.3386 81.5375 15.7636 81.75C16.1942 81.9625 16.5298 82.2421 16.7702 82.5888C17.0107 82.9356 17.1309 83.3829 17.1309 83.931C17.1309 84.5573 16.952 85.0662 16.5941 85.4577C16.2362 85.8435 15.772 86.1259 15.2016 86.3049C14.6368 86.4783 14.0384 86.5649 13.4065 86.5649C12.6068 86.5649 11.9245 86.4503 11.3597 86.221C10.8005 85.9861 10.3307 85.7037 9.95047 85.3738L10.7558 84.4427C11.1025 84.7279 11.4995 84.96 11.9469 85.1389C12.3999 85.3123 12.8864 85.399 13.4065 85.399ZM22.4846 77.3545C23.3178 77.3545 24.014 77.5446 24.5733 77.9249C25.1381 78.2996 25.5603 78.8308 25.8399 79.5187C26.1251 80.2065 26.2677 81.0174 26.2677 81.9513C26.2677 82.8517 26.1223 83.6486 25.8315 84.342C25.5407 85.0355 25.1129 85.5807 24.5481 85.9778C23.9889 86.3692 23.2954 86.5649 22.4678 86.5649C21.6401 86.5649 20.9439 86.3748 20.3791 85.9945C19.8143 85.6143 19.3864 85.0802 19.0957 84.3923C18.8104 83.6989 18.6678 82.8908 18.6678 81.9681C18.6678 81.0566 18.8132 80.2541 19.104 79.5606C19.3948 78.8672 19.8226 78.3275 20.3875 77.9417C20.9579 77.5502 21.6569 77.3545 22.4846 77.3545ZM22.4846 78.5037C21.724 78.5037 21.148 78.7861 20.7566 79.3509C20.3707 79.9102 20.1778 80.7825 20.1778 81.9681C20.1778 83.1313 20.3679 83.9953 20.7482 84.5601C21.134 85.1249 21.7072 85.4073 22.4678 85.4073C23.2283 85.4073 23.7987 85.1249 24.179 84.5601C24.5649 83.9953 24.7578 83.1257 24.7578 81.9513C24.7578 80.777 24.5677 79.9102 24.1874 79.3509C23.8071 78.7861 23.2395 78.5037 22.4846 78.5037ZM27.8382 86.372V77.539H29.0377L29.1468 78.7637C29.5047 78.3108 29.9521 77.964 30.4889 77.7236C31.0314 77.4775 31.557 77.3545 32.0659 77.3545C32.9327 77.3545 33.5619 77.5838 33.9533 78.0423C34.3504 78.5009 34.5489 79.1384 34.5489 79.9549V86.372H33.1397V80.995C33.1397 80.3911 33.1061 79.9046 33.039 79.5355C32.9719 79.1608 32.8321 78.8896 32.6196 78.7218C32.4071 78.5484 32.0771 78.4618 31.6297 78.4618C31.283 78.4618 30.9559 78.5373 30.6483 78.6882C30.3463 78.8392 30.0751 79.0294 29.8346 79.2587C29.5998 79.4823 29.404 79.7088 29.2474 79.9381V86.372H27.8382Z" fill="#031223"/>
<path d="M39.9414 86.4091C41.0178 86.4091 41.5932 85.8895 41.5932 84.8873C41.5932 83.9593 40.9622 83.3468 39.6259 82.7158C37.9555 81.9363 36.9533 81.2496 36.9533 79.7834C36.9533 78.3172 38.1968 77.1851 40.5724 77.1851C42.5583 77.1851 43.412 77.9089 43.412 78.7441C43.412 79.6906 42.3912 80.1175 41.7602 80.136L41.7045 80.0803C41.9644 79.802 42.0386 79.3565 42.0386 78.9297C42.0386 78.1316 41.686 77.3335 40.5724 77.3335C39.3475 77.3335 38.9392 78.1316 38.9392 78.8183C38.9392 79.7834 39.6259 80.2845 40.925 80.8598C42.6882 81.6393 43.5605 82.4003 43.5605 83.7737C43.5605 85.4812 42.1314 86.5576 39.9414 86.5576C37.8071 86.5576 36.7306 85.7967 36.7306 84.7388C36.7306 83.9778 37.5472 83.4582 38.5123 83.4582L38.568 83.5138C38.3267 83.8294 38.2896 84.2191 38.2896 84.5717C38.2896 85.5183 38.7165 86.4091 39.9414 86.4091ZM55.6836 78.0017C55.6836 77.7233 55.4794 77.5191 55.0526 77.5191H54.4587V77.3707H56.9271V77.5191H56.6673C56.2589 77.5191 55.9991 77.8161 55.795 78.4471L53.1038 86.372H52.6955L50.4313 80.4701L48.334 86.372H47.8886L44.9005 78.3543C44.6593 77.779 44.4551 77.5191 44.0282 77.5191H43.8241V77.3707H48.5382V77.5191H47.369C47.369 77.7975 47.4061 78.0574 47.536 78.4471L49.3177 83.254L51.4149 77.3707H51.749L54.0132 83.2726L55.6094 78.3914C55.665 78.2615 55.6836 78.0945 55.6836 78.0017ZM56.851 81.8806C56.851 78.6698 58.4285 77.1851 61.1011 77.1851C63.4581 77.1851 64.3861 78.2801 64.3861 79.8205C64.3861 80.3031 64.2748 80.8413 64.052 81.231H59.4679V81.8806C59.4679 84.5903 59.8762 86.1679 61.9548 86.1679C63.2169 86.1679 64.0892 85.1285 64.0892 84.1449H64.2562C64.2562 85.2213 63.3282 86.5576 61.1196 86.5576C58.3728 86.5576 56.851 85.2028 56.851 81.8806ZM61.1011 77.3335C59.8019 77.3335 59.505 78.7441 59.4679 81.0826H61.4352C62.2147 81.0826 62.4003 80.5443 62.4003 79.672C62.4003 78.3729 62.2332 77.3335 61.1011 77.3335ZM65.6232 81.8806C65.6232 78.6698 67.2008 77.1851 69.8733 77.1851C72.2304 77.1851 73.1584 78.2801 73.1584 79.8205C73.1584 80.3031 73.047 80.8413 72.8243 81.231H68.2401V81.8806C68.2401 84.5903 68.6484 86.1679 70.7271 86.1679C71.9891 86.1679 72.8614 85.1285 72.8614 84.1449H73.0285C73.0285 85.2213 72.1005 86.5576 69.8919 86.5576C67.1451 86.5576 65.6232 85.2028 65.6232 81.8806ZM69.8733 77.3335C68.5742 77.3335 68.2772 78.7441 68.2401 81.0826H70.2074C70.9869 81.0826 71.1725 80.5443 71.1725 79.672C71.1725 78.3729 71.0055 77.3335 69.8733 77.3335ZM78.6827 86.2235V86.372H74.1913V86.2235H75.2121V77.5191H74.1913V77.3707H77.5135L77.6434 79.1338C78.2373 77.7047 79.3137 77.1851 80.5572 77.1851C82.4503 77.1851 83.2112 77.8718 83.2112 80.1175V86.2235H84.232V86.372H79.7406V86.2235H80.7614V78.8183C80.7614 77.946 80.5572 77.5006 79.852 77.5006C79.1096 77.5006 78.1259 78.1502 77.6619 79.5607V86.2235H78.6827ZM85.0708 81.8806C85.0708 78.6698 86.6484 77.1851 89.3209 77.1851C91.678 77.1851 92.606 78.2801 92.606 79.8205C92.606 80.3031 92.4946 80.8413 92.2719 81.231H87.6877V81.8806C87.6877 84.5903 88.096 86.1679 90.1747 86.1679C91.4367 86.1679 92.309 85.1285 92.309 84.1449H92.476C92.476 85.2213 91.5481 86.5576 89.3395 86.5576C86.5927 86.5576 85.0708 85.2028 85.0708 81.8806ZM89.3209 77.3335C88.0218 77.3335 87.7248 78.7441 87.6877 81.0826H89.655C90.4345 81.0826 90.6201 80.5443 90.6201 79.672C90.6201 78.3729 90.4531 77.3335 89.3209 77.3335ZM100.698 78.0202C100.698 77.7233 100.456 77.5191 99.9923 77.5191H99.4541V77.3707H101.885V77.5191H101.626C101.254 77.5191 101.032 77.8161 100.772 78.4471L97.4126 86.8546C96.3547 89.4714 95.7608 90.4551 94.4987 90.4551C93.7007 90.4551 93.1068 89.8241 93.1068 88.9889C93.1068 88.7105 93.1624 88.4321 93.2738 88.1723H93.348C93.5708 88.5991 94.0719 88.7476 94.5173 88.7476C95.1854 88.7476 96.5774 88.5063 97.227 86.836L97.4126 86.3534L94.0719 78.3358C93.7935 77.6862 93.6821 77.5191 93.2367 77.5191H93.014V77.3707H97.7281V77.5191H96.4846C96.4846 77.7975 96.5032 78.0759 96.6702 78.4471L98.7117 83.2726L100.623 78.3914C100.679 78.2615 100.698 78.113 100.698 78.0202Z" fill="#031223"/>
</svg>
