<svg width="28" height="74" viewBox="0 0 28 74" fill="none" xmlns="http://www.w3.org/2000/svg">
<path d="M16.4156 51.0501C16.4156 59.0084 11.3777 65.7985 4.4416 67.1127V66.3826C9.2604 65.2144 11.5968 60.6877 11.5968 54.1166V0.890739H5.39076V0.306641H22.6216V0.890739H16.4156V51.0501Z" fill="#031223"/>
<path d="M18.5828 46.7742V53.3966C21.7399 56.5838 23.0801 59.551 23.0801 63.4562C23.0801 68.8538 19.6519 73.1573 12.7226 73.1573C5.7203 73.1573 1.92741 70.7503 1.63565 60.5386H0.90625V73.0844H1.41683C1.92741 72.8655 2.58387 72.7197 3.38622 72.7197C4.11414 72.7197 4.94952 72.8808 5.97899 73.0795C7.63158 73.3984 9.78431 73.8138 12.7955 73.8138C21.1836 73.8138 27.0918 69.2185 27.0918 61.1222C27.0918 55.3663 23.9793 51.1667 18.5828 46.7742Z" fill="#031223"/>
<path d="M9.41284 45.9285C4.37283 41.7121 1.41683 37.6536 1.41683 32.092C1.41683 24.5062 7.25204 20.2027 15.4213 20.2027C17.9361 20.2027 19.7034 20.5378 21.137 20.8096C22.1151 20.995 22.9378 21.151 23.7365 21.151C24.5389 21.151 25.0494 21.151 25.633 20.9321H26.1435V32.2379H25.4141C24.9036 23.2662 22.7154 20.9321 15.4943 20.9321C8.34615 20.9321 5.42854 25.0168 5.42854 29.9038C5.42854 33.6228 6.64334 36.3641 9.41284 39.2607V45.9285Z" fill="#031223"/>
</svg>
